<?xml version="1.0" encoding="utf-8"?>
<!-- Generator: Adobe Illustrator 25.0.0, SVG Export Plug-In . SVG Version: 6.00 Build 0)  -->
<svg version="1.2" baseProfile="tiny"
	 id="svg2" xmlns:cc="http://creativecommons.org/ns#" xmlns:dc="http://purl.org/dc/elements/1.1/" xmlns:rdf="http://www.w3.org/1999/02/22-rdf-syntax-ns#" xmlns:svg="http://www.w3.org/2000/svg"
	 xmlns="http://www.w3.org/2000/svg" xmlns:xlink="http://www.w3.org/1999/xlink" x="0px" y="0px" viewBox="0 0 486.7 94.6"
	 overflow="visible" xml:space="preserve">
<linearGradient id="SVGID_1_" gradientUnits="userSpaceOnUse" x1="34.0826" y1="47.3067" x2="452.584" y2="47.3067">
	<stop  offset="0" style="stop-color:#54B9EC"/>
	<stop  offset="1" style="stop-color:#65CDEF"/>
</linearGradient>
<path fill="url(#SVGID_1_)" d="M50.7,69.4c-2.3,0-4.5-0.4-6.5-1.3c-2-0.9-3.8-2.1-5.3-3.6c-1.5-1.5-2.7-3.3-3.6-5.3
	c-0.9-2-1.3-4.2-1.3-6.5V41.5c0-2.3,0.4-4.4,1.3-6.4c0.9-2,2.1-3.8,3.6-5.3s3.3-2.7,5.3-3.6c2-0.9,4.1-1.3,6.4-1.3
	c2.3,0,4.5,0.4,6.5,1.3s3.8,2.1,5.3,3.6c1.5,1.5,2.7,3.3,3.6,5.3c0.6,1.4,1,2.9,1.2,4.5c0,0,0,0.4,0.1,1c0.1,0.6,0.3,1,0.6,1.3
	c0.2,0.2,0.3,0.3,0.4,0.3v1.7H52.3V42c0.2,0,0.5-0.1,0.7-0.2c0.4-0.3,0.6-0.7,0.6-1.4v-5.8c0-0.8-0.3-1.5-0.8-2s-1.2-0.8-2-0.8
	s-1.5,0.3-2,0.8c-0.6,0.6-0.8,1.2-0.8,2v25c0,0.8,0.3,1.5,0.8,2c0.6,0.6,1.2,0.8,2,0.8s1.5-0.3,2-0.8s0.8-1.2,0.8-2v-5.8
	c0-0.4-0.1-0.7-0.2-0.9c-0.3-0.5-0.6-0.7-1.1-0.7v-1.7h16.1v1.7l-0.1,0c-0.5,0.2-0.8,0.7-0.9,1.5c-0.1,1.9-0.5,3.8-1.3,5.5
	c-0.9,2-2.1,3.8-3.6,5.3c-1.5,1.5-3.3,2.7-5.3,3.6C55.2,69,53,69.4,50.7,69.4z M89.1,68.9c-1,0-2.4-0.2-4.2-0.5
	c-1.8-0.3-3.7-1.3-5.9-2.8c-2.3-1.8-4-4-4.9-6.5c-1-2.5-1.5-5.2-1.6-8c-0.1-1.4-0.1-2.7-0.1-4.1c0-1.5,0-2.9,0.1-4.4
	c0.1-1.6,0.1-4.1,0.1-7.7c0-1-0.3-1.7-0.9-2.1c-0.4-0.3-0.9-0.5-1.4-0.6l-0.3,0v-6.7h18.6v6.7l-0.3,0c-0.5,0.1-1,0.3-1.5,0.6
	C86.3,33.3,86,34,86,34.9v23.8c0,1.1,0.4,1.9,1.1,2.7c0.5,0.6,1.2,0.8,2,0.8c0.2,0,0.5,0,0.7-0.1c0.8-0.2,1.4-0.6,1.7-1.3
	c0.4-0.7,0.6-1.4,0.6-2.1V34.9c0-0.9-0.3-1.6-0.8-2.1c-0.5-0.4-1-0.6-1.5-0.6l-0.3,0v-6.7h18.6v6.7l-0.3,0c-0.5,0.1-1,0.2-1.5,0.6
	c-0.6,0.5-0.9,1.2-0.9,2.1v17.7c0,2.4-0.5,4.6-1.5,6.7c-1,2.1-2.3,4-4.1,5.5c-1.7,1.6-3.7,2.7-6,3.4C92.3,68.7,90.7,68.9,89.1,68.9z
	 M130,69.1h-8.1c-2.3,0-4.2-0.3-5.6-0.8c-1.4-0.5-2.6-1.3-3.4-2.5c-0.8-1.1-1.4-2.6-1.7-4.3c-0.2-1-0.3-2.2-0.4-3.4
	c0-0.3-0.1-0.5-0.2-0.7c-0.2-0.4-0.5-0.5-0.9-0.5v-1.7H124v1.7l-0.1,0c-0.4,0.2-0.7,0.7-0.8,1.4v1.1c0,0.8,0.3,1.4,0.8,2
	c0.6,0.6,1.2,0.8,2,0.8c0.8,0,1.5-0.3,2-0.8c0.6-0.6,0.8-1.2,0.8-2v-4.4c0-0.5-0.2-1-0.5-1.5c-0.3-0.5-0.7-0.8-1.2-1l-11-4.4
	c-1.3-0.5-2.4-1.3-3.2-2.3c-1.7-1.9-2.5-4.4-2.5-7.4v-1c0-1.7,0.3-3.3,0.8-4.8c0.6-1.5,1.3-2.8,2.4-3.9c1-1.1,2.2-2,3.7-2.7
	c1.4-0.6,3-1,4.7-1h8.1c4.1,0,6.9,1,8.6,3.1c1.4,1.7,2.2,4.1,2.3,7.2l0,1.1c0.1,0.5,0.3,0.9,0.5,1.1l0.4,0.2v1.7h-14.3v-1.7
	c0.2,0,0.4-0.1,0.6-0.2c0.4-0.3,0.5-0.7,0.5-1.4v-1.5c0-0.8-0.3-1.5-0.8-2c-0.6-0.6-1.2-0.8-2-0.8c-0.8,0-1.5,0.3-2,0.8
	c-0.6,0.6-0.8,1.2-0.8,2v5.9c0,0.6,0.2,1.1,0.5,1.5c0.3,0.5,0.8,0.8,1.3,1l10.5,3.7c2.1,0.8,3.6,2.1,4.7,3.8s1.6,3.8,1.6,6
	c0,2.3-0.5,4.4-1.5,6.2c-1,1.9-2.4,3.4-4.2,4.5C134.2,68.5,132.2,69.1,130,69.1z M167.8,68.6h-13.3v0h-2.7v-6.7l0,0.1v-0.1l0.3,0
	c0.5-0.1,1-0.3,1.4-0.7c0.6-0.5,0.9-1.4,0.9-2.4V32.2h-5.8v2.7h-5.7v-9.4h11.5v0h0v0h13.3v0h0v0h11.5v6.7h0v2.7h-5.7v-2.7h-5.8v26.4
	c0,0.6,0.1,1.1,0.3,1.5c0.3,0.7,0.8,1.2,1.4,1.5c0.4,0.2,0.7,0.3,0.9,0.3v6.7L167.8,68.6L167.8,68.6z M196.4,69.7
	c-2,0-3.9-0.3-5.7-1c-2.2-0.8-4.2-2-5.9-3.6c-1.6-1.6-2.9-3.4-3.8-5.5c-0.9-2.1-1.3-4.2-1.3-6.5V41.9c0-2.3,0.4-4.5,1.3-6.5
	c0.9-2,2.1-3.8,3.6-5.3c3.3-3.2,7.2-4.8,11.7-4.9c2.3,0,4.5,0.4,6.5,1.3c2,0.9,3.8,2.1,5.3,3.6c1.5,1.5,2.7,3.3,3.6,5.3
	s1.3,4.2,1.3,6.5v11.2c0,2.3-0.4,4.5-1.3,6.5c-0.9,2-2.1,3.8-3.6,5.3c-3,2.9-6.5,4.5-10.6,4.8C197.1,69.7,196.8,69.7,196.4,69.7z
	 M196.4,62.9c0.8,0,1.5-0.3,2-0.8s0.8-1.2,0.8-2V35c0-0.8-0.3-1.4-0.9-2c-0.6-0.6-1.3-0.9-2-0.9c-0.8,0-1.5,0.3-2.1,0.9
	c-0.6,0.6-0.8,1.2-0.8,2v25c0,0.8,0.3,1.5,0.9,2C194.9,62.6,195.6,62.9,196.4,62.9z M261.4,68.6h-13.3v0h-2.6v-6.7l0.3,0
	c0.5-0.1,1-0.3,1.5-0.7c0.6-0.6,0.9-1.4,0.9-2.4v-9.4l-5.4,19.3H236l-5.4-19.3v9.4c0,0.6,0.1,1.1,0.3,1.5c0.3,0.7,0.8,1.2,1.4,1.5
	c0.3,0.1,0.6,0.2,0.9,0.3v6.7h-2.6v0h-13.3v0h-2.7v-6.7l0.3,0c0.5-0.1,1-0.3,1.5-0.7c0.6-0.6,0.9-1.4,0.9-2.4V34.9
	c0-1-0.3-1.7-0.9-2.1c-0.4-0.3-0.9-0.5-1.5-0.6l-0.3,0v-6.7h18.6v6.7c-0.3,0-0.5,0.1-0.8,0.1l6.9,24.4l6.8-24.4l-0.8-0.1v-6.7H264
	v6.7l-0.3,0c-0.5,0-1,0.2-1.5,0.6c-0.6,0.5-0.9,1.2-0.9,2.1v23.8c0,1.1,0.3,1.9,0.9,2.4c0.4,0.4,0.9,0.6,1.5,0.7l0.3,0v6.7
	L261.4,68.6L261.4,68.6z M300.9,69.1h-8.1c-2.3,0-4.2-0.3-5.6-0.8c-1.4-0.5-2.6-1.3-3.4-2.5c-0.8-1.1-1.4-2.6-1.7-4.3
	c-0.2-1-0.3-2.2-0.4-3.4c0-0.3-0.1-0.5-0.2-0.7c-0.2-0.4-0.5-0.5-0.9-0.5v-1.7h14.3v1.7l-0.1,0c-0.4,0.2-0.7,0.7-0.8,1.4v1.1
	c0,0.8,0.3,1.4,0.8,2c0.6,0.6,1.2,0.8,2,0.8c0.8,0,1.5-0.3,2-0.8c0.6-0.6,0.8-1.2,0.8-2v-4.4c0-0.5-0.2-1-0.5-1.5
	c-0.3-0.5-0.7-0.8-1.2-1l-11-4.4c-1.3-0.5-2.4-1.3-3.2-2.3c-1.7-1.9-2.5-4.4-2.5-7.4v-1c0-1.7,0.3-3.3,0.8-4.8
	c0.6-1.5,1.3-2.8,2.4-3.9c1-1.1,2.2-2,3.7-2.7c1.4-0.6,3-1,4.7-1h8.1c4.1,0,6.9,1,8.6,3.1c1.4,1.7,2.2,4.1,2.3,7.2l0,1.1
	c0.1,0.5,0.3,0.9,0.5,1.1l0.4,0.2v1.7h-14.3v-1.7c0.2,0,0.4-0.1,0.6-0.2c0.4-0.3,0.5-0.7,0.5-1.4v-1.5c0-0.8-0.3-1.5-0.8-2
	c-0.6-0.6-1.2-0.8-2-0.8c-0.8,0-1.5,0.3-2,0.8c-0.6,0.6-0.8,1.2-0.8,2v5.9c0,0.6,0.2,1.1,0.5,1.5c0.3,0.5,0.8,0.8,1.3,1l10.5,3.7
	c2.1,0.8,3.6,2.1,4.7,3.8c1.1,1.8,1.6,3.8,1.6,6c0,2.3-0.5,4.4-1.5,6.2c-1,1.9-2.4,3.4-4.2,4.5C305.2,68.5,303.2,69.1,300.9,69.1z
	 M338.7,68.6h-13.3v0h-2.7v-6.7l0,0.1v-0.1l0.3,0c0.5-0.1,1-0.3,1.4-0.7c0.6-0.5,0.9-1.4,0.9-2.4V32.2h-5.8v2.7h-5.7v-9.4h11.5v0h0
	v0h13.3v0h0v0h11.5v6.7h0v2.7h-5.7v-2.7h-5.8v26.4c0,0.6,0.1,1.1,0.3,1.5c0.3,0.7,0.8,1.2,1.4,1.5c0.4,0.2,0.7,0.3,0.9,0.3v6.7
	L338.7,68.6L338.7,68.6z M367.4,69.7c-2,0-3.9-0.3-5.7-1c-2.2-0.8-4.2-2-5.9-3.6c-1.6-1.6-2.9-3.4-3.8-5.5s-1.3-4.2-1.3-6.5V41.9
	c0-2.3,0.4-4.5,1.3-6.5c0.9-2,2.1-3.8,3.6-5.3c3.3-3.2,7.2-4.8,11.7-4.9c2.3,0,4.5,0.4,6.5,1.3c2,0.9,3.8,2.1,5.3,3.6
	c1.5,1.5,2.7,3.3,3.6,5.3s1.3,4.2,1.3,6.5v11.2c0,2.3-0.4,4.5-1.3,6.5c-0.9,2-2.1,3.8-3.6,5.3c-3,2.9-6.5,4.5-10.6,4.8
	C368.1,69.7,367.7,69.7,367.4,69.7z M367.3,62.9c0.8,0,1.5-0.3,2-0.8c0.6-0.6,0.8-1.2,0.8-2V35c0-0.8-0.3-1.4-0.9-2s-1.3-0.9-2-0.9
	c-0.8,0-1.5,0.3-2.1,0.9c-0.6,0.6-0.8,1.2-0.8,2v25c0,0.8,0.3,1.5,0.9,2C365.8,62.6,366.5,62.9,367.3,62.9z M420.4,68.6h-13.3
	L402,52h-0.4v6.7c0.2,1.5,0.6,2.5,1.2,3c0.3,0.3,0.6,0.5,1,0.5c0.3,0,0.4-0.1,0.5-0.2v6.6h-2.6v0h-13.3v0h-2.6v-6.7l0.3,0
	c0.5-0.1,1-0.3,1.4-0.8c0.6-0.6,0.9-1.4,0.9-2.4V34.9c0-1-0.3-1.7-0.9-2.1c-0.4-0.3-0.9-0.5-1.4-0.6l-0.3,0v-6.7h16v0h5.7
	c2.1,0,4.1,0.5,5.9,1.4c1.9,0.9,3.4,2.2,4.7,3.9c1.8,2.4,2.7,5.1,2.7,8.2c-0.1,2.1-0.7,4-1.9,5.8c-1.1,1.7-2.3,3.1-3.8,4.2
	c0,0,0,0,0,0h0c-0.1,0.1-0.2,0.2-0.3,0.3l3.9,12.6h3.2v6.6L420.4,68.6L420.4,68.6z M402.5,45.3c0.3,0,0.7,0,1-0.1
	c1-0.2,1.9-0.8,2.6-1.6s1-1.8,1-2.9v-4c0-1.3-0.4-2.3-1.3-3.2s-2-1.3-3.2-1.3h-1v13.1H402.5z M452.6,68.7h-6.6v0h-20.1v-0.1h-2.6
	v-6.7l0.3,0c0.5-0.1,1-0.3,1.5-0.7c0.6-0.6,0.9-1.4,0.9-2.4V34.9c0-1-0.3-1.7-0.9-2.1c-0.4-0.3-0.9-0.5-1.5-0.6l-0.3,0v-6.7h29.4
	v9.4h-6.6v-2.7h-5c-0.3,0-0.9,0-1.8,0v10h0.1v1.5h12.1v6.7h-12.1v11.5h6.8v-2.6h6.6V68.7z"/>
</svg>
