<svg id="Layer_1" data-name="Layer 1" xmlns="http://www.w3.org/2000/svg" viewBox="0 0 165.28 56.15"><defs><style>.cls-1{fill:#181315;}.cls-2{fill:#94be47;}.cls-3{fill:#608d3e;}.cls-4{fill:#fff;}</style></defs><title>shopify</title><path id="path2" class="cls-1" d="M174.41,15.56c-3.64.58-5.79,3.12-6.59,7.79l-.08.42-1.2,0-1.2,0-.14.82c-.09.45-.19,1-.24,1.25s-.14.69-.2,1-.12.65-.14.7.23.08,1.14.08c1.36,0,1.25-.1,1.05.89-.13.63-.29,1.48-.49,2.57-.06.32-.16.86-.23,1.2s-.16.87-.22,1.19-.16.89-.24,1.27c-.18.93-.29,1.52-.45,2.39s-.35,1.93-.48,2.56l-.38,2,0,.21h5.23l.05-.27c.06-.39.27-1.52.41-2.25.07-.34.17-.9.23-1.23s.16-.89.23-1.23.17-.88.23-1.2c.11-.65.31-1.71.45-2.39,0-.25.15-.79.22-1.2s.18-.95.23-1.2.11-.57.13-.71.08-.46.13-.71.16-.78.23-1.18l.15-.73H174a6.12,6.12,0,0,0,1.79-.08c0-.05.09-.48.17-1s.18-1.07.23-1.32.12-.67.16-.93a3.74,3.74,0,0,1,.1-.54,14.62,14.62,0,0,0-1.77-.05h-1.81l.13-.51a7,7,0,0,1,.55-1.74,3,3,0,0,1,3.72-1.71,1.62,1.62,0,0,0,.47.08c0-.05,1-3.95,1-4,0-.33-2.92-.57-4.3-.35m-69.5.3-.16.86c-.08.43-.18,1-.23,1.23s-.15.77-.23,1.16c-.15.81-.25,1.37-.45,2.4s-.29,1.48-.45,2.36c-.08.41-.18.93-.23,1.17s-.11.53-.13.67-.08.47-.13.72c-.17.85-.35,1.74-.45,2.33-.06.32-.17.87-.24,1.23-.12.66-.2,1.06-.44,2.33-.07.39-.18.91-.23,1.16s-.15.79-.23,1.2c-.28,1.54-.39,2.11-.48,2.55-.28,1.39-.36,1.81-.45,2.37-.06.33-.17.86-.23,1.16s-.14.7-.16.89l0,.34h5.17l.07-.31c.07-.31.21-1,.46-2.41.13-.71.18-1,.46-2.33.07-.34.17-.87.23-1.19s.15-.85.22-1.17l.22-1.16c.63-3.43,2.28-5.77,4.08-5.76,1.48,0,1.88,1.42,1.24,4.46-.06.25-.16.77-.23,1.17s-.18.93-.23,1.19c-.13.69-.33,1.75-.45,2.43-.06.32-.15.79-.2,1s-.14.68-.19,1l-.19,1c-.17.87-.36,1.94-.36,2a37.68,37.68,0,0,0,5.2-.06c0-.07.06-.29.1-.5s.13-.67.2-1,.17-.88.22-1.2c.11-.59.28-1.48.49-2.52l.22-1.16.2-1c.05-.25.15-.79.22-1.2s.19-1,.26-1.36c.55-2.64.6-4.67.15-5.95-1.16-3.27-5.85-3.46-8.9-.36-.25.26-.43.4-.41.33s0-.25.07-.39.08-.46.13-.71l.22-1.1c.07-.36.18-.91.23-1.23s.15-.77.2-1,.11-.54.13-.68.09-.51.35-1.82c.07-.35.19-1,.26-1.39s.18-.94.24-1.18a1.52,1.52,0,0,0,.06-.53,34.46,34.46,0,0,0-5.18,0m56.28.28c-3.09.86-3,5.38.12,5.52a2.86,2.86,0,0,0,3.11-2.24,2.61,2.61,0,0,0-3.23-3.28m-32.5,7.25-.71.1a10,10,0,0,0-7.6,5.85,12.48,12.48,0,0,0-.88,8.53,6.31,6.31,0,0,0,3.82,4,9.55,9.55,0,0,0,8.41-1.33c4.83-3.64,6.17-11.84,2.51-15.36a7.43,7.43,0,0,0-5.55-1.8m19.64.09A7.11,7.11,0,0,0,144.17,26l-.22.26,0-.29c0-.28.23-2.18.23-2.29s-1,0-2.31,0l-2.32,0V24c0,.14-.08.65-.15,1.13s-.17,1.18-.23,1.55c-.21,1.44-.47,3-.68,4.08l-.22,1.16c-.11.61-.33,1.76-.45,2.37l-.23,1.19c-.07.41-.17.95-.22,1.2s-.16.79-.23,1.2-.2,1-.26,1.36-.17.87-.23,1.19-.16.88-.23,1.23-.17.87-.22,1.14c-.23,1.22-.37,1.95-.48,2.52-.07.34-.17.88-.23,1.2-.1.55-.15.8-.42,2.15l-.11.6h5.2l.14-.7c.08-.38.18-.91.24-1.18.18-1,.36-1.92.44-2.39.66-3.56.58-3.29,1-3.12,3.44,1.52,7.91-.21,10.43-4a14.6,14.6,0,0,0,1.9-4.59c1.35-6.32-1.29-10.63-6-9.74m-53.94,0a7.91,7.91,0,0,0-4.34,1.82,7.68,7.68,0,0,0-1,1.22,1.33,1.33,0,0,1-.12.22,5.48,5.48,0,0,0-.44,4.41.93.93,0,0,1,.11.27c0,.55,1.9,2.37,3.17,3s1.88,1.4,1.88,2.23c0,1.69-1.91,2.2-4.83,1.28-.19-.06-.74-.3-1.24-.54a1.23,1.23,0,0,0-.3-.11s-.16.42-.32.9-.43,1.24-.58,1.68c-.43,1.24-.44,1.11.08,1.39a12.27,12.27,0,0,0,7.93.57c2.77-.9,4.27-2.6,4.57-5.19.27-2.38-.79-4-3.82-5.8-1.56-.93-2-1.63-1.63-2.5.54-1.22,2.89-1.46,5.08-.51.38.16.36.18.6-.58.09-.3.27-.84.38-1.2.64-2,.6-1.78.36-1.92a11.16,11.16,0,0,0-5.51-.66m63.78.37s-.07.34-.13.66-.16.86-.23,1.2-.17.87-.22,1.19-.16.86-.23,1.2-.17.88-.23,1.2-.16.86-.22,1.2-.17.87-.23,1.19-.16.86-.23,1.2-.18,1-.26,1.36-.18,1-.22,1.2-.16.78-.23,1.19-.18,1-.23,1.2-.15.77-.22,1.17c-.2,1.06-.32,1.69-.43,2.2a4.49,4.49,0,0,0-.09.59V42h2.59c1.42,0,2.59,0,2.59,0s.22-1.2.35-1.8c0-.25.11-.57.13-.72s.08-.46.13-.71c.27-1.36.37-1.86.45-2.3l.22-1.13c.07-.35.18-.91.24-1.23.09-.53.2-1.08.45-2.33l.23-1.19c.07-.41.18-.95.23-1.2s.15-.79.22-1.2.18-.93.23-1.16.15-.76.23-1.17.19-1,.25-1.32a2.47,2.47,0,0,0,.09-.63,48,48,0,0,0-5.23,0m19.12,0s0,.27.09.51.14.72.2,1.08.16.91.23,1.23.17.85.23,1.19.16.89.22,1.23.19.95.26,1.36.18,1,.23,1.23.15.82.22,1.23l.45,2.39c.07.34.18.88.23,1.2s.16.88.23,1.23.17.91.22,1.23.17.87.24,1.22c.15.73.15.73-.32,1.5a9.61,9.61,0,0,1-5,3.92c-.46.18-.46.17-.25.79l.39,1.24c.14.43.35,1.08.46,1.46s.24.76.26.86a.44.44,0,0,0,.13.22,8.1,8.1,0,0,0,2.23-.82l.5-.26c1.55-.68,4-3.14,5.74-5.89l.59-.91c.67-1,2.17-3.84,2.94-5.5l.58-1.26c.14-.28.34-.72.46-1s.32-.7.47-1l.45-1c.25-.56.85-1.85,1.34-2.88l.39-.84c.22-.49.56-1.21,1-2.07l.61-1.33c.21-.45.44-.95.53-1.12.31-.61.53-.56-2.53-.56h-2.68l-.07.24c-.08.24-.32.87-.74,2-.12.3-.33.84-.46,1.19s-.3.77-.36.92a1.74,1.74,0,0,0-.12.34,1.39,1.39,0,0,1-.1.28c-.05.11-.19.48-.32.81L186,30.71c-.69,1.75-1.73,4.63-1.85,5.12s-.11.31-.19-.52c0-.44-.13-1.26-.2-1.83-.14-1.14-.3-2.68-.36-3.33,0-.23-.07-.83-.12-1.33-.11-1-.19-1.86-.33-3.33,0-.52-.11-1.11-.13-1.31l0-.37H180a22.72,22.72,0,0,0-2.74.06m-47.8,3.7c1.43.54,1.85,2.58,1.17,5.55-.82,3.56-2.37,5.46-4.21,5.17s-2.55-2.51-1.74-5.88c.86-3.59,2.84-5.59,4.78-4.84m18.29.22a1.81,1.81,0,0,1,1.16,1.06l.23.49,0,1.13c.09,4.59-2.83,8.68-5.58,7.83-1-.3-1.23-.51-1.15-.94,0-.18.12-.61.18-1s.15-.83.2-1.07.11-.59.15-.8a13.27,13.27,0,0,1,1.16-4.24c.9-1.87,2.36-2.86,3.63-2.49" transform="translate(-28.72 -1.73)"/><path class="cls-2" d="M72,12.66a.56.56,0,0,0-.49-.46L67,11.87,63.63,8.56a1.34,1.34,0,0,0-1.22-.15l-1.68.51C59.73,6,58,3.39,54.85,3.39h-.26a3.76,3.76,0,0,0-2.92-1.67c-7.25,0-10.71,9-11.79,13.65L34.81,17c-1.57.49-1.62.54-1.83,2-.15,1.12-4.26,32.91-4.26,32.91l32,6L78.1,54.13S72,12.94,72,12.66ZM59,9.47l-2.71.84V9.72a13.5,13.5,0,0,0-.64-4.37C57.21,5.55,58.27,7.37,59,9.47ZM53.62,5.7a13.6,13.6,0,0,1,.73,4.88v.32l-5.6,1.73C49.83,8.47,51.85,6.46,53.62,5.7Zm-2.15-2A1.64,1.64,0,0,1,52.4,4c-2.33,1.09-4.81,3.84-5.86,9.34l-4.43,1.37c1.23-4.19,4.16-11,9.36-11Z" transform="translate(-28.72 -1.73)"/><path class="cls-3" d="M71.48,12.2,67,11.87,63.63,8.56a.85.85,0,0,0-.46-.21L60.75,57.88,78.1,54.13S72,12.94,72,12.66a.56.56,0,0,0-.49-.46" transform="translate(-28.72 -1.73)"/><path class="cls-4" d="M54.85,21.79l-2.14,6.37a9.82,9.82,0,0,0-4.17-1c-3.37,0-3.54,2.11-3.54,2.64,0,2.91,7.58,4,7.58,10.83,0,5.36-3.4,8.81-8,8.81A11.1,11.1,0,0,1,36.29,46l1.47-4.87s2.89,2.48,5.33,2.48a2.14,2.14,0,0,0,2.24-2.17c0-3.79-6.21-4-6.21-10.19C39.12,26,42.88,21,50.48,21a9.29,9.29,0,0,1,4.37.84" transform="translate(-28.72 -1.73)"/></svg>