<svg id="Layer_1" data-name="Layer 1" xmlns="http://www.w3.org/2000/svg" viewBox="0 0 220 44.19"><defs><style>.cls-1{fill-opacity:0.99;}.cls-2{fill-opacity:1;}.cls-3{fill:#9a5c8e;}.cls-4{fill:#fff;}</style></defs><title>woo-commerce</title><g id="Layer0_0_FILL" data-name="Layer0 0 FILL"><path class="cls-1" d="M94.71,19.85a14.87,14.87,0,0,0-1.6-.21c-2.76-.12-5.44.05-7.94,1.83a11,11,0,0,0-4.59,9.3,10.48,10.48,0,0,0,5.07,9.16A9.75,9.75,0,0,0,90,41.29a14.1,14.1,0,0,0,3.67-.13c1.09-.17,1-.29,1-.29v-5a5.76,5.76,0,0,1-7.87-3.66c-.6-2.8,0-5,1.58-6.41s3.72-1.81,6.31-.95" transform="translate(-2 -10.49)"/><path class="cls-1" d="M209,19.85a14.55,14.55,0,0,0-1.59-.21c-2.76-.12-5.45.05-7.94,1.83a11,11,0,0,0-4.59,9.3A10.48,10.48,0,0,0,200,39.93a9.71,9.71,0,0,0,4.33,1.36,14.18,14.18,0,0,0,3.68-.13c1.09-.17,1-.29,1-.29v-5a5.76,5.76,0,0,1-7.87-3.66c-.61-2.8,0-5,1.58-6.41s3.72-1.81,6.3-.95" transform="translate(-2 -10.49)"/><polyline class="cls-1" points="134.56 9.51 127.32 9.51 124.74 20.9 122.41 9.51 115.29 9.51 112.58 30.35 117.89 30.35 119.34 16.23 123.01 30.35 126.86 30.35 130.27 16.23 131.86 30.35 137.38 30.35"/><polyline class="cls-1" points="159.97 9.49 152.79 9.51 150.28 20.78 147.82 9.49 140.82 9.49 137.96 30.35 143.59 30.35 144.88 16.23 148.52 30.35 152.42 30.35 155.68 16.23 157.27 30.35 162.8 30.35"/><path class="cls-1" d="M177.81,20H166.52V40.84h11.35v-4.4H172.1V32.51h5V28.21h-5v-3.8h5.7V20" transform="translate(-2 -10.49)"/><path class="cls-1" d="M191.31,31.51c2.29-1,3.31-3.07,3.06-6.13a4.68,4.68,0,0,0-1.48-3.32A9.33,9.33,0,0,0,186.65,20h-7.12V40.84h5.64V31.39l4.55,9.45h6.08S191.31,31.55,191.31,31.51Zm-6.14-2.3V24s4.18-.2,4.18,2.61S185.17,29.21,185.17,29.21Z" transform="translate(-2 -10.49)"/><path class="cls-2" d="M221.88,20h-11.3V40.84H222v-4.4h-5.77v-3.8h4.91v-4.3h-4.91V24.47h5.65Z" transform="translate(-2 -10.49)"/><path d="M105,19.61c-5.12,0-9.28,4.87-9.28,10.88S99.08,41.37,105,41.37s9.29-4.88,9.29-10.88S110.14,19.61,105,19.61Zm-.13,17.06c-2.37,0-3.43-2.8-3.43-6.26s1.06-6.26,3.43-6.26,3.43,2.8,3.43,6.26S107.3,36.67,104.88,36.67Z" transform="translate(-2 -10.49)"/></g><path class="cls-3" d="M8.89,10.49H69.31a6.91,6.91,0,0,1,6.92,6.92V40.47a6.91,6.91,0,0,1-6.92,6.92H47.64l3,7.29L37.54,47.39H8.92A6.92,6.92,0,0,1,2,40.47V17.41A6.88,6.88,0,0,1,8.89,10.49Z" transform="translate(-2 -10.49)"/><path class="cls-4" d="M6.23,16.79a2.42,2.42,0,0,1,1.9-.93A2.2,2.2,0,0,1,10.75,18q1.41,9.46,3.05,16l6.61-12.59a2.87,2.87,0,0,1,2.26-1.81c1.33-.09,2.15.76,2.48,2.54A56.73,56.73,0,0,0,28,32.52c.79-7.67,2.12-13.19,4-16.6a2.3,2.3,0,0,1,2-1.33,2.6,2.6,0,0,1,1.9.61,2.36,2.36,0,0,1,.94,1.72,2.53,2.53,0,0,1-.31,1.44c-1.17,2.18-2.14,5.83-2.92,10.9a55.91,55.91,0,0,0-.85,11.49,3.63,3.63,0,0,1-.36,2,2,2,0,0,1-1.6,1.08,3,3,0,0,1-2.38-1.11q-4.21-4.3-6.67-12.86-2.94,5.79-4.35,8.69C15.61,42,14.1,43.71,12.84,43.8c-.82.06-1.51-.63-2.12-2.08q-2.31-5.92-5-22.9a2.57,2.57,0,0,1,.49-2Zm64.85,4.74A7,7,0,0,0,66.25,18a8,8,0,0,0-1.63-.18c-2.9,0-5.25,1.51-7.09,4.53a16,16,0,0,0-2.36,8.51,11.73,11.73,0,0,0,1.45,6,7,7,0,0,0,4.83,3.5,8,8,0,0,0,1.63.18C66,40.54,68.36,39,70.17,36a16.17,16.17,0,0,0,2.35-8.54,11.19,11.19,0,0,0-1.44-5.95Zm-3.81,8.36A8,8,0,0,1,65,34.36a2.91,2.91,0,0,1-2.44,1c-.73-.15-1.33-.78-1.78-2a7.47,7.47,0,0,1-.55-2.74,10.62,10.62,0,0,1,.21-2.21A9.88,9.88,0,0,1,62,24.82c1-1.48,2-2.08,3.14-1.87.73.15,1.33.79,1.78,2a7.72,7.72,0,0,1,.54,2.75,10.62,10.62,0,0,1-.21,2.23ZM52.19,21.53A7,7,0,0,0,47.36,18a8,8,0,0,0-1.63-.18c-2.9,0-5.25,1.51-7.09,4.53a16,16,0,0,0-2.36,8.51,11.73,11.73,0,0,0,1.45,6,7,7,0,0,0,4.83,3.5,8,8,0,0,0,1.63.18c2.93,0,5.28-1.51,7.09-4.52a16.17,16.17,0,0,0,2.35-8.54,11.48,11.48,0,0,0-1.44-5.95Zm-3.84,8.36a8,8,0,0,1-2.29,4.47,2.91,2.91,0,0,1-2.44,1c-.73-.15-1.33-.78-1.79-2a7.67,7.67,0,0,1-.54-2.74,10.62,10.62,0,0,1,.21-2.21,9.88,9.88,0,0,1,1.6-3.59c1-1.48,2-2.08,3.14-1.87.72.15,1.33.79,1.78,2a7.72,7.72,0,0,1,.54,2.75,8.94,8.94,0,0,1-.21,2.23Z" transform="translate(-2 -10.49)"/></svg>