<svg height="600" width="600" xmlns="http://www.w3.org/2000/svg" xmlns:xlink="http://www.w3.org/1999/xlink" x="0" y="0" overflow="visible">
  <defs/>
  <g>
    <path d="M524.3005215076546,165.86768324774684 c-23.498013178409202,-40.25628614285607 -55.37156767178688,-72.12984063623375 -95.62905220372794,-95.62665542555798 C388.4067944374757,46.745411421949655 344.45227957835226,35 296.7743698321767,35 c-47.673116189835596,0 -91.6408133288939,11.745411421949642 -131.89829786083496,35.241027822188876 c-40.25988131011103,23.493219622069258 -72.13343580348871,55.36677411544693 -95.63144898189789,95.62665542555798 C45.74541142194964,206.12996133602786 34,250.09765847508615 34,297.7671794976668 c0,47.67191780075061 11.749006589204601,91.63242460529898 35.241027822188876,131.89709947174998 c23.496814789324215,40.25628614285607 55.370369282701894,72.12984063623375 95.63025059281293,95.62905220372794 c40.26227808828101,23.494418011154245 84.22638006008435,35.241027822188876 131.89829786083496,35.241027822188876 s91.6408133288939,-11.746609811034629 131.90069463900494,-35.241027822188876 c40.25748453194106,-23.490822843899284 72.12984063623375,-55.372766060871875 95.625457036473,-95.62905220372794 c23.492021232984275,-40.261079699196024 35.23623426584892,-84.22757844916934 35.23623426584892,-131.89709947174998 C559.5331606062485,250.0928649187462 547.7877491842991,206.1239693906029 524.3005215076546,165.86768324774684 z" />
  </g>
</svg>