
<svg xmlns="http://www.w3.org/2000/svg" version="1.1" xmlns:xlink="http://www.w3.org/1999/xlink" preserveAspectRatio="none" x="0px" y="0px" width="100px" height="100px" viewBox="0 0 100 100">
<defs>
<g id="Layer0_0_FILL">
<path fill="#333333" stroke="none" d="
M 55.65 57.45
L 52.85 57.45 41.65 78.05 44.5 78.05 55.65 57.45
M 80.6 53.35
Q 79.9 52.05 79.2 50.65
L 64.35 78.05 67.2 78.05 80.6 53.35
M 35.9 78.05
L 38.75 78.05 49.95 57.45 47.1 57.45 35.9 78.05
M 61.5 15.2
Q 60.75 13.8 60.05 12.65
L 16.4 93.15
Q 16.85 93.2 17.3 93.2
L 19.2 93.2 61.5 15.2
M 77.85 47.95
Q 77.15 46.6 76.45 45.2
L 58.65 78.05 61.5 78.05 77.85 47.95
M 75.05 42.5
Q 74.4 41.15 73.7 39.8
L 52.95 78.05 55.8 78.05 75.05 42.5
M 72.3 37.1
Q 71.65 35.8 70.95 34.45
L 58.8 56.85 59.1 57.45 58.5 57.45 47.35 78.05 50.1 78.05 72.3 37.1
M 69.6 31.7
Q 68.9 30.4 68.25 29.05
L 56.15 51.35 57.45 54.1 69.6 31.7
M 53.4 45.8
L 54.75 48.55 66.85 26.3
Q 66.15 24.95 65.45 23.6
L 53.4 45.8
M 48.9 6.9
Q 47.05 7.15 45.25 8.4
L 25 45.7
Q 22.8 50.25 20.4 55.35 8.15 79.8 8.15 81.75
L 8.15 82.1 48.9 6.9
M 54.3 7.4
Q 53.05 6.9 51.75 6.85
L 8.7 86.3
Q 9.45 87.65 10.25 88.7
L 54.3 7.4
M 58.35 10.4
Q 57.45 9.4 56.5 8.65
L 11.95 90.75
Q 12.95 91.7 13.95 92.3
L 58.35 10.4
M 64.1 20.9
Q 63.7 20.15 63.3 19.4 63.05 18.7 62.8 18.05
L 22.3 92.7
Q 22.95 92.4 23.4 91.95 26.1 91.95 31.95 78.05
L 33.1 78.05 44.3 57.45 42.35 57.45
Q 48.7 43.55 50.8 40.45
L 52.1 43.05 64.1 20.9
M 81.8 93.1
L 91.55 75.15
Q 90.9 73.9 90.15 72.4
L 79.35 92.3
Q 80.5 92.9 81.8 93.1
M 94.2 80.75
L 94.2 80.7
Q 93.9 80 92.9 77.9
L 84.6 93.2 84.65 93.2 87.35 92.45
Q 87.8 92.1 88.2 91.8
L 94.2 80.75
M 86.1 64.2
Q 85.4 62.9 84.7 61.5
L 72.75 83.55
Q 73.35 85.1 74.05 86.4
L 86.1 64.2
M 88.8 69.65
Q 88.15 68.35 87.45 66.95
L 75.6 88.85
Q 76.4 89.95 77.3 90.8
L 88.8 69.65
M 83.3 58.75
Q 82.65 57.45 81.95 56.1
L 69.95 78.25 71.35 80.85 83.3 58.75 Z"/>
</g>
</defs>

<g transform="matrix( 1, 0, 0, 1, 0,0) ">
<use xlink:href="#Layer0_0_FILL"/>
</g>
</svg>
