<svg xmlns="http://www.w3.org/2000/svg" width="512" height="512"  xmlns:v="https://vecta.io/nano"><path d="M210.792 471.712v25.157c0 8.322 6.76 15.13 15.02 15.13h60.377c8.26 0 15.02-6.8 15.02-15.13v-25.157h-90.415z" fill="#576574"/><path d="M242.4 496.87v-25.157h-31.598v25.157c0 8.322 6.758 15.13 15.02 15.13h31.598c-8.26 0-15.02-6.8-15.02-15.13z" fill="#3e4b5a"/><path d="M258.402.017c-96.526-1.3-175.033 75.32-175.954 171.85-.466 48.832 19.24 93.06 51.3 124.868 17.535 17.403 30.508 38.863 38.453 62.256l14.42 42.458c.792-.13 1.6-.216 2.428-.216H322.96a14.85 14.85 0 0 1 2.428.216l14.42-42.463c7.98-23.493 21.1-44.965 38.677-62.475 31.546-31.424 51.073-74.903 51.073-122.95C429.56 78.508 353.15 1.302 258.402.017z" fill="#feca57"/><path d="M203.1 359c-7.945-23.393-20.918-44.853-38.453-62.256-32.05-31.8-51.757-76.036-51.3-124.868.863-90.48 69.9-163.474 158.03-171.192a176.17 176.17 0 0 0-12.982-.66C161.868-1.294 83.36 75.334 82.44 171.864c-.466 48.832 19.24 93.06 51.3 124.868 17.535 17.403 30.508 38.863 38.453 62.256l14.42 42.458a14.95 14.95 0 0 1 2.427-.216h28.406L203.1 359zm119.86 42.242a14.85 14.85 0 0 1 2.428.216l.073-.216h-2.5z" fill="#f4b537"/><path d="M455.337 113.162a7.73 7.73 0 0 1-.147-10.926L480.145 76.6a7.73 7.73 0 0 1 10.927-.147 7.73 7.73 0 0 1 .147 10.926l-24.955 25.637a7.73 7.73 0 0 1-10.927.147zm24.808 159.785L455.2 247.3a7.73 7.73 0 0 1 .147-10.926 7.73 7.73 0 0 1 10.927.147l24.954 25.636a7.73 7.73 0 0 1-.147 10.926 7.73 7.73 0 0 1-10.926-.146zm14.172-90.447h-24.955a7.73 7.73 0 0 1-7.727-7.727 7.73 7.73 0 0 1 7.727-7.727h24.955a7.73 7.73 0 0 1 7.727 7.727 7.73 7.73 0 0 1-7.727 7.727zM45.752 113.017L20.787 87.38c-2.978-3.058-2.913-7.95.145-10.926s7.95-2.914 10.926.145l24.965 25.637c2.978 3.058 2.913 7.95-.145 10.926a7.73 7.73 0 0 1-10.926-.145zM20.93 273.094a7.73 7.73 0 0 1-.145-10.926l24.965-25.636a7.73 7.73 0 0 1 10.926-.145 7.73 7.73 0 0 1 .145 10.926L31.857 272.95a7.73 7.73 0 0 1-10.926.145zM42.65 182.5H17.683a7.73 7.73 0 0 1-7.727-7.727 7.73 7.73 0 0 1 7.727-7.727H42.65a7.73 7.73 0 0 1 7.727 7.727 7.73 7.73 0 0 1-7.727 7.727z" fill="#feca57"/><path d="M280.8 382.055c-4.267 0-7.727-3.506-7.727-7.83 0-62.87 13.458-103.34 14.03-105.033 1.385-4.1 5.783-6.27 9.816-4.865s6.184 5.855 4.802 9.944c-.17.506-13.195 39.98-13.195 99.954 0 4.326-3.46 7.83-7.727 7.83zm-49.6 0c-4.267 0-7.727-3.506-7.727-7.83 0-60.06-13.064-99.563-13.197-99.956-1.377-4.1.775-8.542 4.8-9.94s8.425.777 9.808 4.864c.573 1.693 14.03 42.163 14.03 105.033.001 4.326-3.46 7.83-7.726 7.83z" fill="#e59d1f"/><path d="M287.595 374.328h-63.2c-7.487 0-13.613 6.126-13.613 13.613v13.292h90.415V387.94c.001-7.487-6.125-13.613-13.612-13.613z" fill="#f4b537"/><path d="M254.972 374.328h-30.567c-7.487 0-13.613 6.126-13.613 13.613v13.292h30.567V387.94c.001-7.487 6.126-13.613 13.613-13.613z" fill="#e59d1f"/><path d="M322.96 400.407H189.04c-8.26 0-15.02 6.8-15.02 15.13v6.935c0 8.322 6.76 15.13 15.02 15.13h133.92c8.26 0 15.02-6.8 15.02-15.13v-6.935c0-8.322-6.758-15.13-15.02-15.13z" fill="#ccd2db"/><path d="M322.96 437.4H189.04c-8.26 0-15.02 6.85-15.02 15.22v6.975c0 8.37 6.76 15.22 15.02 15.22h133.92c8.26 0 15.02-6.85 15.02-15.22V452.6c0-8.37-6.758-15.22-15.02-15.22z" fill="#e4eaf8"/><path d="M322.96 417H189.04c-5.82 0-10.883-3.388-13.373-8.296-1.044 2.058-1.646 4.377-1.646 6.835v6.935c0 8.322 6.76 15.13 15.02 15.13h133.92c8.26 0 15.02-6.8 15.02-15.13v-6.935c0-2.458-.602-4.777-1.646-6.835-2.5 4.908-7.552 8.296-13.373 8.296z" fill="#bcc2cc"/><path d="M322.96 454.198H189.04c-5.844 0-10.922-3.435-13.402-8.404-1.025 2.055-1.617 4.366-1.617 6.815v6.975c0 8.37 6.76 15.22 15.02 15.22H322.96c8.26 0 15.02-6.85 15.02-15.22v-6.975c0-2.45-.592-4.76-1.617-6.815-2.48 4.968-7.558 8.404-13.402 8.404z" fill="#ccd2db"/><path d="M307.647 236.278H204.353c-8.26 0-15.02 6.76-15.02 15.02v6.884c0 8.26 6.76 15.02 15.02 15.02h103.294c8.26 0 15.02-6.76 15.02-15.02v-6.884c0-8.26-6.76-15.02-15.02-15.02z" fill="#f4b537"/><path d="M307.647 252.655H204.353c-5.802 0-10.852-3.34-13.35-8.188a14.85 14.85 0 0 0-1.668 6.83v6.884c0 8.26 6.758 15.02 15.02 15.02H307.65c8.26 0 15.02-6.76 15.02-15.02v-6.884c0-2.458-.6-4.777-1.668-6.83-2.5 4.847-7.55 8.188-13.35 8.188z" fill="#e59d1f"/></svg>