<svg xmlns="http://www.w3.org/2000/svg" xmlns:xlink="http://www.w3.org/1999/xlink" width="500" height="500" viewBox="0 0 500 500">
  <defs>
    <clipPath id="clip-Web_1920_1">
      <rect width="500" height="500"/>
    </clipPath>
  </defs>
  <g id="Web_1920_1" data-name="Web 1920 – 1" clip-path="url(#clip-Web_1920_1)">
    <rect width="500" height="500" fill="#fff"/>
    <path id="object-ungroup" d="M481.39,195.878a10.243,10.243,0,0,0,10.242-10.242V124.181a10.243,10.243,0,0,0-10.242-10.242H419.936a10.243,10.243,0,0,0-10.242,10.242v10.242H334.583V113.939h10.242A10.243,10.243,0,0,0,355.068,103.7V42.242A10.243,10.243,0,0,0,344.826,32H283.372a10.243,10.243,0,0,0-10.242,10.242V52.485H81.939V42.242A10.243,10.243,0,0,0,71.7,32H10.242A10.243,10.243,0,0,0,0,42.242V103.7a10.243,10.243,0,0,0,10.242,10.242H20.485V250.5H10.242A10.243,10.243,0,0,0,0,260.746V322.2a10.243,10.243,0,0,0,10.242,10.242H71.7A10.243,10.243,0,0,0,81.939,322.2V311.957h75.111v20.485H146.807a10.243,10.243,0,0,0-10.242,10.242v61.454a10.243,10.243,0,0,0,10.242,10.242h61.454A10.243,10.243,0,0,0,218.5,404.139V393.9h191.19v10.242a10.243,10.243,0,0,0,10.242,10.242H481.39a10.243,10.243,0,0,0,10.242-10.242V342.685a10.243,10.243,0,0,0-10.242-10.242H471.148V195.878ZM300.442,59.313h27.313V86.626H300.442Zm0,218.5h27.313v27.313H300.442ZM54.626,305.129H27.313V277.816H54.626Zm0-218.5H27.313V59.313H54.626ZM81.939,270.988V260.746A10.243,10.243,0,0,0,71.7,250.5H61.454V113.939H71.7A10.243,10.243,0,0,0,81.939,103.7V93.454h191.19V103.7a10.243,10.243,0,0,0,10.242,10.242h10.242V250.5H283.372a10.243,10.243,0,0,0-10.242,10.242v10.242ZM191.19,387.068H163.878V359.755H191.19Zm238.988-54.626H419.936a10.243,10.243,0,0,0-10.242,10.242v10.242H218.5V342.685a10.243,10.243,0,0,0-10.242-10.242H198.019V311.957h75.111V322.2a10.243,10.243,0,0,0,10.242,10.242h61.454A10.243,10.243,0,0,0,355.068,322.2V260.746A10.243,10.243,0,0,0,344.826,250.5H334.583V175.393h75.111v10.242a10.243,10.243,0,0,0,10.242,10.242h10.242Zm34.141,54.626H437.007V359.755H464.32Zm0-218.5H437.007V141.252H464.32Z" transform="translate(4 27)"/>
  </g>
</svg>
