<?xml version="1.0" encoding="utf-8"?>
<!-- Generator: Adobe Illustrator 22.1.0, SVG Export Plug-In . SVG Version: 6.00 Build 0)  -->
<svg version="1.1" id="Layer_1" xmlns="http://www.w3.org/2000/svg" xmlns:xlink="http://www.w3.org/1999/xlink" x="0px" y="0px"
	 viewBox="0 0 100 100" style="enable-background:new 0 0 100 100;" xml:space="preserve">
<style type="text/css">
	.st0{fill:#A01E00;}
	.st1{fill:#00CCFF;}
	.st2{fill:#FFCC00;}
	.st3{fill:#1800AB;}
	.st4{fill:#06B523;}
	.st5{fill:#D2720B;}
</style>
<g transform="matrix( 1, 0, 0, 1, 0,0) ">
	<g id="Layer0_0_FILL">
		<path d="M81.5,71.7V48.5c0-2.4-0.4-4.9-1.3-7.5c-0.8-2.5-2.1-5.1-3.7-7.8c0-0.1,0-0.2-0.1-0.3c-2-2.5-4-4.7-6-6.5
			c-1.7-1.4-3.4-2.6-5.1-3.6c-1.7-1-3.5-1.8-5.3-2.4C57.5,19.4,54.8,19,52,19h-3.1c-4.8,0-9.9,1.6-15.5,4.9h-0.1
			c-2.5,2-4.7,4-6.5,6.1c-3.1,3.5-5.3,7.3-6.4,11.5c-0.7,2.3-1,4.6-1,7v3c0,2.2,0.4,4.5,1.1,7c0.7,2.3,1.7,4.8,3,7.4
			c0.2,0.4,0.5,0.9,0.8,1.3v0.1c1.9,2.5,3.9,4.6,6,6.4c2.9,2.5,5.9,4.4,9.1,5.7c3,1.2,6.2,1.8,9.5,1.8h2.8c3.9,0,7.8-0.9,11.6-2.7
			c0.5,0.3,1,0.7,1.5,1c1.9,1.1,3.5,1.7,4.7,1.7h3.3c0.1,0,0.1,0,0.2,0C78.7,78.8,81.5,75.7,81.5,71.7 M59.1,21
			c0.2,0.1,0.5,0.1,0.7,0.3c1.7,0.5,3.4,1.3,5,2.3c1.6,0.9,3.1,2,4.7,3.4c0.1,0,0.2,0.1,0.3,0.2c2,1.7,3.9,3.8,5.8,6.2l0,0.1
			c0,0,0,0.1,0.1,0.1c1.6,2.7,2.8,5.3,3.7,7.8c0.8,2.5,1.2,4.9,1.2,7.3V51v8.8v7.6v4.3c0,3.6-2.6,6.3-7.8,8.3h-3.1
			c-1.1,0-2.5-0.5-4.2-1.6h0.1c-0.6-0.4-1.1-0.7-1.7-1.1c-0.1-0.1-0.2-0.1-0.3-0.1c-0.1,0-0.2,0-0.3,0.1c-3.8,1.8-7.6,2.7-11.5,2.7
			h-2.8c-2.9,0-5.8-0.5-8.5-1.4c-0.2-0.1-0.5-0.2-0.7-0.3c-3-1.2-5.8-3-8.5-5.3c-0.1-0.1-0.2-0.1-0.3-0.2c-2-1.8-4-3.9-5.8-6.3
			c-0.2-0.4-0.5-0.7-0.7-1.1c0-0.1,0-0.1,0-0.1c-1.3-2.5-2.3-4.8-3-7.1v0c-0.7-2.3-1-4.5-1-6.7V49v-0.5c0-2.3,0.3-4.6,1-6.8
			c0-0.1,0-0.2,0-0.3c1.1-3.8,3.1-7.4,6.1-10.8c0.2-0.2,0.3-0.4,0.5-0.6c1.7-1.9,3.6-3.7,5.9-5.4c5.4-3.1,10.3-4.7,15-4.7H52
			C54.4,20,56.8,20.4,59.1,21 M42,42.5c-0.2,0.2-0.3,0.4-0.5,0.5c-1.6,2-2.3,4.2-2.3,6.8c0,1.1,0.2,2.1,0.5,3.1
			c0.5,1.7,1.4,3.3,2.8,4.8c1,1,2,1.8,3.3,2.3c0.2,0.1,0.4,0.2,0.7,0.3c1.2,0.4,2.5,0.7,3.9,0.7c3,0,5.7-1.1,7.9-3.3
			c0.2-0.2,0.4-0.4,0.6-0.6h0c0.1-0.2,0.3-0.4,0.4-0.5c1.5-2,2.2-4.2,2.2-6.7c0-1.1-0.1-2.1-0.4-3.1v-0.1c-0.5-1.7-1.5-3.2-2.8-4.6
			c-1.2-1.2-2.5-2-3.9-2.5c-0.2-0.1-0.5-0.1-0.7-0.2c-1-0.3-2.1-0.5-3.3-0.5c-3,0-5.6,1.1-7.8,3.3C42.3,42.1,42.1,42.3,42,42.5
			 M42.8,43.1L42.8,43.1c0.1-0.2,0.2-0.3,0.4-0.4c2-2,4.3-3,7.1-3c1,0,2,0.2,3,0.5h0c1.5,0.4,2.9,1.3,4.2,2.5
			c1.2,1.3,2.1,2.7,2.6,4.3c0.2,0.9,0.4,1.9,0.4,2.9c0,2.5-0.8,4.7-2.4,6.5v0.1c-0.2,0.2-0.4,0.3-0.6,0.5c-2,2-4.4,3-7.2,3
			c-1.3,0-2.4-0.2-3.5-0.6c-1.3-0.5-2.5-1.3-3.5-2.3c-1.3-1.3-2.2-2.7-2.6-4.3c-0.3-0.9-0.4-1.9-0.4-2.9
			C40.2,47.2,41.1,45,42.8,43.1z"/>
		<path class="st0" d="M80.5,71.7v-4.3l-40,11.2c2.7,1,5.5,1.4,8.5,1.4h2.8c3.8,0,7.6-0.9,11.5-2.7c0.1,0,0.2-0.1,0.3-0.1
			c0.1,0,0.2,0,0.3,0.1c0.6,0.4,1.1,0.7,1.7,1.1h-0.1c1.7,1,3.1,1.6,4.2,1.6h3.1C77.9,78,80.5,75.3,80.5,71.7z"/>
		<path class="st1" d="M39.8,78.3c0.2,0.1,0.4,0.2,0.7,0.3l40-11.2v-7.6L31.3,73.1C34,75.3,36.8,77.1,39.8,78.3 M59.8,21.3
			c-0.2-0.1-0.5-0.2-0.7-0.3l-31,9.1c-0.2,0.2-0.3,0.4-0.5,0.6c-3,3.3-5,6.9-6.1,10.8l48-14.5c-1.5-1.3-3.1-2.4-4.7-3.4
			C63.2,22.6,61.5,21.8,59.8,21.3z"/>
		<path class="st2" d="M24.5,65.4c0.2,0.4,0.4,0.7,0.7,1.1C27,69,29,71,31,72.8c0.1,0.1,0.1,0.1,0.3,0.2l49.3-13.3V51l-21.3,5.5
			c-0.1,0.2-0.3,0.4-0.4,0.5h0c-0.2,0.2-0.4,0.4-0.6,0.6c-2.2,2.2-4.8,3.3-7.9,3.3c-1.4,0-2.7-0.2-3.9-0.7C46.2,60.1,46,60,45.8,60
			L24.5,65.4 M39.7,52.9c-0.3-1-0.5-2-0.5-3.1c0-2.6,0.8-4.8,2.3-6.8l-21,6v2.5c0,2.2,0.4,4.4,1,6.7L39.7,52.9 M54.3,39.4
			c1.4,0.5,2.7,1.4,3.9,2.5c1.4,1.4,2.3,2.9,2.8,4.6l18.3-5.3c-0.8-2.5-2.1-5.1-3.7-7.8c0,0-0.1-0.1-0.1-0.1l0-0.1L54.3,39.4z"/>
		<path class="st3" d="M21.5,58.2L21.5,58.2c0.6,2.3,1.6,4.7,3,7.2c0,0,0,0,0,0.1L45.8,60c-1.2-0.5-2.3-1.3-3.3-2.3
			c-1.4-1.4-2.4-3-2.8-4.8L21.5,58.2 M61,46.6L61,46.6c0.3,1.1,0.4,2.1,0.4,3.2c0,2.5-0.7,4.7-2.2,6.7L80.5,51v-2.5
			c0-2.3-0.4-4.8-1.2-7.3L61,46.6z"/>
		<path class="st4" d="M41.5,43c0.2-0.2,0.3-0.4,0.5-0.5c0.1-0.1,0.3-0.3,0.5-0.5c2.2-2.2,4.8-3.3,7.8-3.3c1.2,0,2.3,0.2,3.3,0.5
			c0.2,0.1,0.5,0.1,0.7,0.2l21.3-6.1c-1.9-2.4-3.8-4.5-5.8-6.2c-0.1-0.1-0.2-0.2-0.3-0.2l-48,14.5c0,0.1,0,0.2,0,0.3
			c-0.6,2.2-1,4.4-1,6.8V49L41.5,43z"/>
		<path class="st5" d="M52,20h-3.1c-4.6,0-9.6,1.6-15,4.7c-2.2,1.7-4.2,3.5-5.9,5.4l31-9.1C56.8,20.4,54.4,20,52,20z"/>
	</g>
</g>
</svg>
