<?xml version="1.0" encoding="utf-8"?>
<!-- Generator: Adobe Illustrator 16.0.0, SVG Export Plug-In . SVG Version: 6.00 Build 0)  -->
<!DOCTYPE svg PUBLIC "-//W3C//DTD SVG 1.1//EN" "http://www.w3.org/Graphics/SVG/1.1/DTD/svg11.dtd">
<svg version="1.1" id="Layer_1" xmlns="http://www.w3.org/2000/svg" xmlns:xlink="http://www.w3.org/1999/xlink" x="0px" y="0px"
	 width="160px" height="160px" viewBox="0 0 160 160" enable-background="new 0 0 160 160" xml:space="preserve">
<path fill="none" stroke="#ED1C24" stroke-width="0.25" stroke-miterlimit="10" d="M129.629,85.902
	c-1.178,0.334-2.417,0.521-3.704,0.521H70.21L49.571,102.3l22.302,11.341L14.796,159l36.666-39.689l-25.326-13.983L46.56,86.425
	H35.586c-0.371,0-0.735-0.024-1.099-0.054c-0.575,0.031-1.153,0.054-1.736,0.054c-16.179,0-29.294-13.114-29.294-29.293
	c0-15.775,12.471-28.631,28.091-29.264C34.218,12.604,47.528,1,63.557,1C75.23,1,85.461,7.156,91.193,16.395
	c3.654-2.316,7.975-3.677,12.621-3.677c9.476,0,17.625,5.593,21.391,13.645c0.488-0.023,0.98-0.036,1.477-0.036
	c16.493,0,29.862,13.368,29.862,29.861C156.543,71.684,144.736,84.42,129.629,85.902z"/>
</svg>
