<?xml version="1.0" encoding="utf-8"?>
<!-- Generator: Adobe Illustrator 16.0.0, SVG Export Plug-In . SVG Version: 6.00 Build 0)  -->
<!DOCTYPE svg PUBLIC "-//W3C//DTD SVG 1.1//EN" "http://www.w3.org/Graphics/SVG/1.1/DTD/svg11.dtd">
<svg version="1.1" id="Layer_1" xmlns="http://www.w3.org/2000/svg" xmlns:xlink="http://www.w3.org/1999/xlink" x="0px" y="0px"
	 width="160px" height="160px" viewBox="0 0 160 160" enable-background="new 0 0 160 160" xml:space="preserve">
<path fill="none" stroke="#ED1C24" stroke-width="0.25" stroke-miterlimit="10" d="M37.952,6.08
	c0.026,0.642,0.157,0.772,0.333,0.333c0.159-0.397,0.14-0.873-0.044-1.056C38.058,5.174,37.929,5.499,37.952,6.08 M38.844,6.646
	c-0.761,1.015-1.219,1.204-1.958,0.808c-0.553-0.296-1.294-0.313-1.736-0.041c-0.424,0.262-0.968,0.354-1.209,0.205
	c-0.241-0.149-0.439,0.057-0.439,0.458c0,0.784-4.557,2.604-7.371,2.944c-1.956,0.237-3.922,0.655-3.922,0.836
	c0,0.067-1.431,0.174-3.18,0.239c-3.452,0.126-4.406,0.568-3.139,1.448c0.613,0.426,0.643,0.631,0.122,0.842
	c-0.378,0.153-0.688,0.631-0.688,1.06c0,1.201-0.935,0.924-1.276-0.377c-0.167-0.636-0.551-1.003-0.855-0.815
	c-0.757,0.468-0.544,2.523,0.262,2.523c0.357,0,0.792,0.372,0.967,0.827c0.175,0.454,0.137,0.826-0.083,0.826
	c-0.22,0-0.988,1.639-1.707,3.642c-1.082,3.017-1.176,3.724-0.546,4.123c0.631,0.399,0.633,0.482,0.013,0.49
	c-0.444,0.005-0.615,0.352-0.424,0.853c0.216,0.561-0.134,1.018-1.042,1.363c-1.65,0.627-1.712,1.166-0.285,2.457
	c0.938,0.848,1.057,1.56,0.892,5.311c-0.121,2.74,0.009,4.209,0.351,3.998c0.297-0.184,0.256,0.198-0.092,0.847
	c-0.504,0.943-0.46,1.354,0.221,2.035c1.121,1.121,1.141,4.079,0.026,4.079c-0.455,0-0.826,0.263-0.826,0.583
	s0.248,0.43,0.551,0.242c0.311-0.191,0.551,0.255,0.551,1.024c0,0.75,0.31,1.474,0.688,1.609c0.379,0.136,0.532,0.416,0.341,0.624
	c-0.191,0.207-0.734-0.009-1.206-0.481c-0.777-0.777-0.85-0.757-0.777,0.211c0.044,0.588,0.303,0.931,0.576,0.763
	c0.28-0.174,0.338,0.412,0.133,1.347c-0.232,1.054-0.104,1.933,0.354,2.423c0.395,0.424,0.793,1.116,0.886,1.539
	c0.14,0.634,0.019,0.645-0.689,0.057c-0.728-0.604-0.857-0.542-0.857,0.411c0,0.618-0.31,1.228-0.688,1.355
	c-0.549,0.185-0.547,0.404,0.009,1.078c0.384,0.465,0.542,1.252,0.352,1.749c-0.264,0.686-0.101,0.831,0.679,0.604
	c0.651-0.19,0.573-0.061-0.214,0.353c-1.356,0.714-1.635,1.885-0.551,2.323c0.458,0.185,0.402,0.292-0.165,0.321
	c-0.47,0.023-1.152-0.254-1.515-0.618c-1.154-1.153-1.99,0.424-2.119,4.002c-0.111,3.064-0.015,3.365,1.215,3.833
	c0.734,0.279,1.709,0.364,2.166,0.189s0.831-0.045,0.831,0.291s-0.263,0.61-0.583,0.61c-0.32,0-0.443,0.227-0.272,0.504
	c0.171,0.277,0,0.608-0.38,0.736c-0.542,0.183-0.529,0.431,0.063,1.149c0.668,0.809,0.509,1.119-0.518,1.014
	c-0.479-0.048,0.105,3.394,0.705,4.147c0.291,0.365,0.364,0.931,0.164,1.256c-0.201,0.324-0.442,1.266-0.536,2.089
	c-0.781,6.838-0.977,7.8-1.573,7.685c-0.748-0.144-0.54,1.98,0.221,2.262c0.272,0.1,0.124,0.553-0.331,1.008
	s-0.711,1.014-0.569,1.243c0.597,0.964,0.175,11.407-0.624,15.471c-0.607,3.082-0.151,10.017,0.714,10.882
	c0.421,0.422,0.764,1.021,0.764,1.334c0,0.314,0.385,0.424,0.855,0.243c0.491-0.188,0.712-0.096,0.519,0.218
	c-0.302,0.486,0.418,0.778,1.508,0.611c0.609-0.093,1.141,2.54,0.787,3.893c-0.209,0.802,0.068,1.52,0.849,2.194
	c1.496,1.3,1.976,1.298,0.801-0.001c-1.002-1.107-1.207-2.299-0.394-2.299c0.286,0,0.672,0.249,0.859,0.552
	c0.649,1.05,1.377,0.543,1.385-0.964c0.006-1.131,0.137-1.313,0.513-0.719c0.308,0.486,0.296,1.184-0.028,1.79
	c-0.354,0.661-0.341,0.993,0.038,0.993c0.313,0,0.57,0.274,0.57,0.611c0,0.334-0.372,0.467-0.826,0.291
	c-0.455-0.174-0.827-0.041-0.827,0.295s-0.434,0.938-0.964,1.342c-0.812,0.615-0.828,0.733-0.11,0.748
	c0.469,0.012,1.151-0.277,1.515-0.643c0.514-0.514,0.661-0.465,0.661,0.223c0,0.615,0.337,0.797,1.101,0.599
	c0.69-0.181,1.102-0.017,1.102,0.438c0,0.563,0.147,0.577,0.661,0.063c0.818-0.817,2.293-0.88,1.796-0.075
	c-0.246,0.396,0.277,0.466,1.62,0.214c1.278-0.239,1.982-0.161,1.982,0.222c0,0.994,2.27,1.967,2.755,1.181
	c0.307-0.496,0.512-0.504,0.804-0.032c0.215,0.35,0.087,1-0.285,1.449c-0.372,0.447-0.579,0.892-0.461,0.984
	c2.094,1.64,2.906,1.891,4.274,1.321c0.798-0.331,1.878-1.075,2.399-1.653c1.052-1.164,2.542-0.809,1.562,0.373
	c-0.315,0.379-0.41,0.854-0.211,1.054c0.639,0.639,2.226,0.388,2.934-0.464c0.377-0.455,1.134-0.827,1.683-0.827
	c0.548,0,1.154-0.495,1.347-1.103c0.627-1.973,1.479-1.186,1.287,1.189c-0.231,2.863,0.959,3.538,1.891,1.068
	c0.354-0.938,1.028-1.707,1.498-1.707s1.793-0.64,2.94-1.418c1.723-1.172,2.234-1.297,2.924-0.725
	c0.679,0.563,0.94,0.546,1.387-0.097c0.42-0.603,0.618-0.628,0.831-0.104c0.165,0.406,0.785,0.562,1.514,0.377
	c0.763-0.19,1.507,0.021,1.95,0.553c0.911,1.1,1.922,1.092,3.629-0.027c0.748-0.488,1.358-0.706,1.358-0.482
	c0,0.223,0.42,0.065,0.932-0.352c0.633-0.514,0.799-0.535,0.519-0.066c-0.228,0.379-0.172,0.688,0.124,0.688
	c0.295,0,0.641-0.187,0.768-0.412c0.127-0.228,0.159-0.112,0.07,0.257c-0.275,1.145,0.91,1.413,1.974,0.45
	c1.276-1.154,2.026-0.175,0.802,1.049c-0.806,0.806-0.619,0.864,2.241,0.697c1.947-0.113,3.309-0.479,3.621-0.974
	c0.416-0.656,0.502-0.634,0.51,0.142c0.004,0.512-0.24,1.084-0.543,1.271c-0.744,0.459-0.695,2.828,0.104,5.035
	c0.553,1.528,0.512,1.967-0.259,2.819c-0.768,0.85-0.813,1.33-0.286,3.049c0.345,1.123,0.771,2.035,0.947,2.026
	c0.176-0.006,0.745-0.864,1.264-1.908c0.826-1.663,0.844-1.995,0.137-2.701c-1.154-1.154-0.994-2.191,0.434-2.82
	c0.902-0.394,1.315-1.145,1.515-2.746c0.256-2.05,0.494-2.268,2.204-2.011c0.303,0.048,0.551,0.579,0.551,1.185
	c0,1.354,1.014,1.434,1.951,0.15c0.646-0.886,0.842-0.851,2.781,0.53c1.438,1.022,2.289,1.315,2.737,0.942
	c1.201-0.996,2.442,0.017,2.302,1.875c-0.121,1.586,0.01,1.735,1.521,1.754c1.442,0.016,1.698,0.262,2.021,1.928l0.367,1.908
	l-0.01-1.928c-0.016-3.009,0.128-3.17,0.975-1.102c0.734,1.799,0.768,1.816,0.465,0.275c-0.359-1.836-0.313-6.441,0.069-6.825
	c0.604-0.605,1.039,0.801,1.246,4.05c0.222,3.484,0.203,3.538-2.041,5.873c-2.53,2.634-2.651,2.966-1.36,3.689
	c1.256,0.701,3.088,0.144,2.713-0.828c-0.164-0.432,0.105-1.402,0.602-2.159c0.95-1.449,1.264-7.618,0.508-9.997
	c-0.318-1.006-0.184-1.239,0.713-1.239c0.608,0,1.27-0.264,1.469-0.587c0.24-0.389,0.694-0.286,1.344,0.3
	c0.875,0.791,1.013,0.796,1.305,0.034c0.502-1.311,1.462-1.005,1.462,0.465c0,0.783-0.54,1.668-1.334,2.188
	c-1.85,1.214-2.299,2.937-1.108,4.25c1.771,1.957,5.367,1.07,6.969-1.721c0.513-0.894,1.341-1.623,1.843-1.623
	s2.558-0.807,4.571-1.791c3.033-1.483,4.297-1.789,7.396-1.789c2.723,0,3.881,0.225,4.262,0.826c0.402,0.639,0.522,0.48,0.529-0.689
	c0.006-0.832,0.258-1.516,0.561-1.516c0.304,0,0.551,0.373,0.551,0.832c0,0.652,0.574,0.785,2.711,0.627
	c2.371-0.175,2.755-0.056,3.059,0.961c0.344,1.148,0.353,1.147,0.864-0.113c0.312-0.762,0.798-1.135,1.212-0.922
	c0.381,0.193,0.244-0.018-0.304-0.465c-0.646-0.527-0.789-0.941-0.401-1.182c0.639-0.395,4.27,0.611,5.377,1.491
	c0.457,0.36,0.971,0.235,1.596-0.39c0.629-0.629,1.041-0.728,1.298-0.313c0.209,0.337,0.714-0.41,1.129-1.67
	c0.646-1.958,0.64-2.482-0.052-3.714c-0.442-0.788-1.42-1.604-2.174-1.813c-0.869-0.242-1.018-0.402-0.403-0.438
	c0.53-0.029,1.147,0.008,1.372,0.083c0.633,0.214,1.104-3.086,0.548-3.83c-0.272-0.363-0.354-1.106-0.183-1.652
	c0.174-0.545,0.054-2.479-0.267-4.296c-0.319-1.816-0.575-4.296-0.567-5.508c0.03-5.063,0.209-7.213,0.672-8.088
	c0.328-0.625,0.223-1.189-0.332-1.745c-0.451-0.451-0.608-0.901-0.351-1.003c0.259-0.102,0.644-1.357,0.854-2.799
	c0.324-2.203,0.244-2.616-0.508-2.616c-0.49,0-0.754-0.226-0.584-0.499s0.779-0.376,1.355-0.225c0.818,0.213,1.13-0.109,1.434-1.483
	c0.271-1.233,0.559-1.584,0.965-1.177c0.408,0.406,1.037,0.259,2.104-0.5c1.339-0.954,1.563-1.557,1.893-5.072
	c0.205-2.193,0.137-5.29-0.153-6.881c-0.425-2.333-0.382-2.893,0.225-2.893c1.263,0,0.839-0.794-0.811-1.525
	c-2.091-0.925-3.099-2.938-2.91-5.811c0.049-0.751,0.435-0.958,1.548-0.826c1.15,0.135,1.586,0.575,1.943,1.964
	c0.255,0.984,0.731,1.791,1.063,1.791c0.399,0,0.372,0.279-0.082,0.826c-0.379,0.455-0.468,0.827-0.201,0.827
	c0.953,0,1.717-2.007,1.551-4.086c-0.221-2.783-0.916-3.449-2.737-2.62c-2.031,0.926-2.29,0.841-3.238-1.061
	c-0.729-1.464-0.741-1.817-0.079-2.479c1.018-1.02,1.219-0.978,1.561,0.33c0.447,1.716,1.861,1.318,2.253-0.633
	c0.34-1.697,0.37-1.714,1.448-0.739c0.607,0.549,1.287,0.814,1.514,0.589c0.225-0.225-0.025-0.726-0.557-1.114
	c-0.528-0.387-0.961-0.986-0.961-1.332c0-0.617-0.707-0.846-2.066-0.67c-0.379,0.05-0.688-0.148-0.688-0.439s0.31-0.669,0.688-0.84
	s0.193-0.239-0.414-0.15c-0.605,0.087-1.038,0.455-0.964,0.815c0.077,0.361-0.086,0.657-0.36,0.657c-0.275,0-0.363,0.52-0.197,1.155
	c0.279,1.067,0.207,1.099-0.949,0.413c-0.986-0.584-1.305-0.595-1.502-0.053c-0.137,0.379-0.469,0.688-0.736,0.688
	c-1.012,0,0.174-1.596,1.314-1.771c0.748-0.115,1.104-0.486,0.951-0.997c-0.435-1.467-0.021-7.397,0.604-8.626
	c0.336-0.661,0.426-1.653,0.2-2.204c-0.537-1.316-0.767-4.582-0.319-4.582c0.573,0,0.567-4.351-0.007-4.706
	c-0.292-0.181-0.389-0.558-0.215-0.838c0.406-0.659,0.758-2.406,1.068-5.335c0.198-1.842,0.071-2.341-0.591-2.341
	c-0.463,0-0.7-0.226-0.53-0.502c0.172-0.277,0.43-1.906,0.576-3.621c0.146-1.715,0.407-3.349,0.58-3.629
	c0.174-0.282,0.053-0.511-0.27-0.511c-0.318,0-0.582-0.372-0.582-0.826c0-0.455-0.248-0.827-0.551-0.827
	c-0.304,0-0.551-0.372-0.551-0.826c0-0.454-0.273-0.827-0.609-0.827s-0.481,0.333-0.326,0.739c0.154,0.406,0.063,1.088-0.209,1.515
	c-0.362,0.574-0.492,0.412-0.499-0.622c-0.007-1.043-0.315-1.421-1.224-1.489c-0.668-0.05-1.535,0.175-1.928,0.5
	c-0.544,0.452-0.714,0.33-0.714-0.512c0-0.66,0.468-1.227,1.157-1.408c0.636-0.167,0.992-0.567,0.794-0.891
	c-0.2-0.323-0.04-0.591,0.356-0.596c0.563-0.006,0.556-0.113-0.041-0.491c-0.42-0.265-1.473-0.433-2.34-0.374
	c-1,0.07-1.58-0.159-1.58-0.621c0-0.513-0.43-0.623-1.438-0.369c-1.382,0.346-1.425,0.287-1.088-1.505
	c0.343-1.835,0.334-1.845-0.55-0.638c-0.76,1.036-1.084,1.129-2.08,0.601c-0.649-0.344-1.504-1.082-1.899-1.641
	c-0.396-0.557-1.202-1.014-1.79-1.014c-0.775,0-1.07-0.38-1.07-1.376c0-0.758-0.248-1.377-0.552-1.377
	c-0.303,0-0.551,0.372-0.551,0.826s-0.388,0.826-0.856,0.826c-0.479,0-0.697,0.267-0.492,0.597c0.203,0.328-0.34,0.239-1.207-0.198
	c-1.889-0.953-4.58-1.421-10.113-1.76c-2.271-0.14-5.371-0.496-6.887-0.793c-2.322-0.455-2.861-0.398-3.441,0.362
	c-0.623,0.814-0.689,0.795-0.689-0.196c0-0.884-0.369-1.097-1.908-1.097c-1.258,0-1.987,0.292-2.139,0.854
	c-0.205,0.758-0.238,0.759-0.296,0.007c-0.048-0.631-0.729-0.85-2.681-0.86c-1.439-0.008-2.799,0.249-3.021,0.57
	c-0.24,0.349-0.408,0.196-0.412-0.379c-0.011-1.237-1.041-1.237-2.055,0c-0.435,0.53-0.665,0.704-0.511,0.386
	c0.153-0.317,0.053-0.937-0.228-1.377c-0.395-0.625-0.508-0.528-0.514,0.439c-0.005,0.682-0.285,1.239-0.624,1.239
	c-0.344,0-0.487-0.486-0.327-1.102c0.182-0.694,0.019-1.102-0.445-1.102c-0.403,0-0.848,0.434-0.986,0.964
	c-0.188,0.726-0.268,0.657-0.314-0.275c-0.051-0.975-0.395-1.239-1.605-1.239c-0.85,0-1.842,0.297-2.204,0.661
	c-0.425,0.424-0.661,0.45-0.661,0.071c0-0.891-2.424-0.577-2.853,0.369c-0.292,0.644-0.399,0.583-0.485-0.275
	c-0.065-0.646-0.279-0.307-0.518,0.827l-0.406,1.928l-0.072-2.033c-0.065-1.834-0.212-2.022-1.506-1.923
	c-1.014,0.078-1.64,0.593-2.137,1.757c-0.625,1.462-0.753,1.531-1.132,0.611c-0.248-0.599-0.157-1.472,0.214-2.066
	c0.521-0.833,0.484-1.029-0.189-1.029c-0.457,0-0.83,0.372-0.83,0.827c0,1.146-0.971,1.04-1.25-0.138
	c-0.17-0.72-0.334-0.581-0.65,0.551c-0.233,0.833-0.637,1.515-0.897,1.515c-0.26,0-0.332-0.372-0.157-0.827
	c0.461-1.202-0.187-2.507-1.075-2.167c-0.476,0.183-0.668,0.806-0.507,1.644c0.294,1.543-0.136,1.714-1.327,0.523
	c-0.454-0.454-0.561-0.826-0.235-0.826c0.325,0,0.59-0.372,0.59-0.827c0-1.467-1.408-0.876-1.535,0.644
	c-0.188,2.283-0.669,2.258-0.669-0.034c0-1.354-0.207-1.924-0.606-1.678c-0.345,0.213-0.47,1.058-0.29,1.96
	c0.347,1.736-0.907,2.323-1.524,0.714c-0.462-1.204-0.42-1.45,0.182-1.077c0.285,0.176,0.48-0.188,0.434-0.808
	c-0.054-0.708-0.365-1.02-0.838-0.838c-0.414,0.159-0.833,0.29-0.932,0.29c-0.098,0-0.049,0.496,0.109,1.102
	c0.222,0.846,0.018,1.102-0.876,1.102c-0.642,0-1.174,0.31-1.185,0.688c-0.01,0.388-0.371,0.221-0.826-0.381
	c-0.444-0.588-0.809-0.774-0.809-0.413c0,0.36-0.249,0.656-0.551,0.656c-1.025,0-0.559-1.202,0.583-1.5
	c0.641-0.167,1.013-0.608,0.857-1.015c-0.151-0.395,0.021-0.838,0.382-0.985c0.494-0.201,0.496-0.279,0.009-0.311
	c-0.357-0.024-1.437,0.885-2.401,2.022c-1.131,1.335-1.848,1.814-2.022,1.354c-0.207-0.546-0.449-0.562-1.042-0.07
	c-1.172,0.973-0.923,0.106,0.33-1.146c1.099-1.1,1.496-2.755,0.661-2.755c-0.243,0-0.738,0.298-1.102,0.661
	c-0.514,0.514-0.661,0.514-0.661,0c0-0.363-0.248-0.661-0.551-0.661s-0.551,0.868-0.551,1.928c0,1.332-0.251,1.928-0.813,1.928
	c-0.624,0-0.699-0.298-0.324-1.286c0.595-1.564,0.147-2.325-1.426-2.421c-0.793-0.049-1.285,0.325-1.488,1.128
	c-0.292,1.166-0.279,1.169,0.497,0.131c0.713-0.954,1.051-0.804,0.864,0.38c-0.036,0.227,0.236,0.414,0.604,0.414
	c0.396,0,0.255,0.396-0.341,0.964c-0.765,0.73-1.074,0.792-1.273,0.252c-0.19-0.514-0.459-0.548-0.971-0.124
	c-0.519,0.431-0.795,0.364-1.031-0.252c-0.178-0.462-0.679-0.84-1.114-0.84c-0.523,0-0.694-0.377-0.502-1.11
	c0.232-0.888,0.094-1.035-0.693-0.733c-0.727,0.28-0.866,0.188-0.533-0.353c0.286-0.462,0.238-0.597-0.133-0.368
	c-0.321,0.198-0.461,0.829-0.312,1.4c0.149,0.572,0.002,1.206-0.327,1.409c-0.33,0.204-0.599,0.107-0.599-0.213
	c0-0.321-0.38-0.583-0.844-0.583s-1.022-0.47-1.24-1.044C39.86,5.383,39.778,5.4,38.844,6.646 M45.621,6.244
	c0,0.383,0.372,1.067,0.826,1.522c1.056,1.056,1.043,0.255-0.018-1.148C45.976,6.017,45.621,5.853,45.621,6.244 M60.494,7.411
	c0,0.606,0.096,1.102,0.211,1.102c0.116,0,0.341-0.496,0.5-1.102c0.158-0.606,0.063-1.102-0.211-1.102
	C60.719,6.309,60.494,6.805,60.494,7.411 M77.131,11.377c-0.514,0.514-0.661,0.368-0.661-0.661c0-1.028,0.147-1.175,0.661-0.661
	C77.645,10.569,77.645,10.863,77.131,11.377 M18.353,13.471c0.187,0.303,0.078,0.55-0.243,0.55c-0.32,0-0.583-0.248-0.583-0.55
	c0-0.303,0.11-0.551,0.243-0.551S18.165,13.167,18.353,13.471 M141.369,19.355c0.396,0.159,0.872,0.14,1.056-0.043
	c0.183-0.183-0.143-0.313-0.723-0.29C141.061,19.049,140.93,19.18,141.369,19.355 M143.283,22.483
	c0.236,0.713,2.066,0.945,3.063,0.389c0.555-0.312,0.184-0.52-1.22-0.684C143.971,22.054,143.184,22.181,143.283,22.483
	 M8.162,44.044c0,0.454,0.248,0.826,0.55,0.826c0.303,0,0.551-0.372,0.551-0.826c0-0.455-0.248-0.826-0.551-0.826
	C8.409,43.218,8.162,43.59,8.162,44.044 M10.916,45.113c0,0.437,0.248,0.947,0.551,1.134c0.303,0.188,0.551-0.17,0.551-0.794
	c0-0.623-0.248-1.134-0.551-1.134C11.164,44.319,10.916,44.676,10.916,45.113 M4.688,48.528c-0.44,0.44,0.058,1.3,0.752,1.3
	c0.286,0,0.519-0.372,0.519-0.826C5.958,48.15,5.308,47.908,4.688,48.528 M13.808,53.499c-0.378,0.152-0.689,0.629-0.689,1.058
	c0,0.429-0.248,0.78-0.55,0.78c-0.304,0-0.551-0.352-0.551-0.78c0-0.763,0.827-1.336,1.928-1.336
	C14.249,53.221,14.187,53.346,13.808,53.499 M8.265,55.923c0.132,0.397,0.566,0.831,0.964,0.963c0.413,0.138,0.62-0.068,0.482-0.482
	c-0.133-0.397-0.567-0.832-0.964-0.963C8.333,55.303,8.127,55.51,8.265,55.923 M12.844,59.193c0.188,0.303,0.078,0.551-0.243,0.551
	c-0.32,0-0.583-0.248-0.583-0.551c0-0.303,0.109-0.551,0.243-0.551C12.394,58.642,12.657,58.891,12.844,59.193 M149.441,59.771
	c-0.521,0.848,0.193,1.394,0.901,0.686c0.396-0.395,0.405-0.703,0.029-0.935C150.063,59.331,149.646,59.444,149.441,59.771
	 M4.856,60.295c0,0.303,0.248,0.551,0.551,0.551c0.304,0,0.551-0.249,0.551-0.551c0-0.303-0.248-0.551-0.551-0.551
	C5.104,59.744,4.856,59.992,4.856,60.295 M8.162,61.672c0,0.455,0.372,0.826,0.826,0.826c0.455,0,0.827-0.372,0.827-0.826
	s-0.372-0.826-0.827-0.826C8.533,60.846,8.162,61.218,8.162,61.672 M146.706,61.947c-0.188,0.303-0.078,0.551,0.243,0.551
	c0.318,0,0.583-0.248,0.583-0.551c0-0.303-0.109-0.551-0.243-0.551C147.154,61.396,146.895,61.645,146.706,61.947 M148.412,76.735
	c-0.191,0.309-0.078,0.727,0.249,0.93c0.848,0.523,1.396-0.194,0.687-0.901C148.952,76.369,148.645,76.359,148.412,76.735
	 M148.634,81.229c0,0.605-0.219,1.103-0.485,1.103c-0.268,0-0.617-0.496-0.775-1.103c-0.188-0.717-0.018-1.102,0.486-1.102
	C148.284,80.126,148.634,80.622,148.634,81.229 M153.04,81.504c0,0.505,0.267,0.829,0.594,0.721
	c0.325-0.107,0.593-0.434,0.593-0.721s-0.268-0.611-0.593-0.721C153.307,80.675,153.04,80.999,153.04,81.504 M157.035,82.693
	c-1.115,0.451-0.789,1.144,0.504,1.076c0.656-0.035,1.299-0.373,1.424-0.752C159.193,82.326,158.314,82.18,157.035,82.693
	 M149.34,85.637c0.727,2.809,0.025,5.217-2.156,7.397c-1.078,1.081-2.135,1.858-2.344,1.729c-0.209-0.131-0.352-1.121-0.314-2.203
	s-0.114-1.968-0.332-1.968c-0.221,0-0.529-0.342-0.689-0.758c-0.195-0.511,0.135-0.758,1.014-0.758c1.047,0,1.348,0.34,1.521,1.722
	c0.199,1.585,0.225,1.557,0.305-0.376c0.1-2.364,1.182-2.307,1.206,0.063c0.017,1.322,0.081,1.373,0.609,0.467
	c0.422-0.729,0.418-1.189-0.019-1.626c-0.855-0.856-0.807-6.056,0.057-5.767C148.561,83.684,149.074,84.616,149.34,85.637
	 M155.273,85.323c-0.559,0.673-0.594,1.069-0.135,1.528s0.709,0.388,0.967-0.279C156.667,85.104,156.13,84.294,155.273,85.323
	 M142.425,88.723c-0.184,0.184-0.659,0.202-1.056,0.045c-0.439-0.178-0.311-0.308,0.333-0.334
	C142.282,88.409,142.607,88.54,142.425,88.723 M142.666,91.823c-0.409,0.407-0.479,0.192-0.24-0.724
	c0.195-0.744,0.444-0.994,0.583-0.582C143.141,90.915,142.986,91.502,142.666,91.823 M5.475,99.602
	c-0.67,0.809-0.29,1.459,0.851,1.459c0.82,0,1.005-1.42,0.246-1.89C6.303,99.005,5.809,99.198,5.475,99.602 M152,62.333
	c-0.18,0.468-0.445,0.731-0.589,0.587s-0.099-0.527,0.101-0.851C152.055,61.191,152.373,61.363,152,62.333 M141.85,102.814
	c-0.177,0.439-0.307,0.311-0.332-0.332c-0.024-0.58,0.104-0.905,0.287-0.724C141.986,101.943,142.008,102.418,141.85,102.814
	 M1,124.779c0,0.32,0.248,0.431,0.551,0.242c0.303-0.187,0.551-0.449,0.551-0.582c0-0.135-0.249-0.244-0.551-0.244
	C1.249,124.195,1,124.459,1,124.779 M8.49,126.865c-0.19,0.309-0.078,0.726,0.25,0.929c0.847,0.522,1.394-0.192,0.687-0.899
	C9.031,126.498,8.723,126.488,8.49,126.865 M9.539,129.154c0.187,0.304,0.449,0.55,0.583,0.55c0.134,0,0.243-0.246,0.243-0.55
	c0-0.305-0.263-0.551-0.583-0.551C9.461,128.604,9.351,128.852,9.539,129.154 M8.88,132.805l-1.21,2.522l1.21-0.325
	c0.665-0.178,1.536-0.327,1.935-0.332c0.489-0.006,0.604-0.391,0.354-1.178c-0.232-0.732-0.163-1.042,0.187-0.826
	c0.33,0.205,0.297-0.217-0.078-1.027c-0.351-0.755-0.762-1.369-0.913-1.363C10.213,130.277,9.545,131.417,8.88,132.805
	 M6.509,132.459c0,0.303,0.372,0.552,0.827,0.552s0.826-0.249,0.826-0.552s-0.372-0.551-0.826-0.551
	C6.88,131.908,6.509,132.156,6.509,132.459 M70.41,137.417c0,0.304-0.248,0.551-0.551,0.551c-0.303,0-0.551-0.247-0.551-0.551
	c0-0.303,0.248-0.552,0.551-0.552C70.163,136.865,70.41,137.114,70.41,137.417 M83.631,137.968c0,0.304-0.248,0.552-0.551,0.552
	s-0.551-0.248-0.551-0.552c0-0.303,0.248-0.551,0.551-0.551S83.631,137.665,83.631,137.968 M118.611,138.52
	c0.187,0.303-0.047,0.551-0.521,0.551c-0.471,0-0.856-0.248-0.856-0.551c0-0.304,0.231-0.552,0.518-0.552
	S118.424,138.216,118.611,138.52 M55.813,139.068c0.187,0.304,0.573,0.552,0.858,0.552c0.286,0,0.519-0.248,0.519-0.552
	c0-0.303-0.386-0.551-0.859-0.551C55.858,138.52,55.625,138.768,55.813,139.068 M63.933,139.611
	c-0.376,0.604-0.684,1.601-0.684,2.219c0,1.074,0.057,1.084,1.404,0.199c0.89-0.582,1.344-1.328,1.24-2.034
	C65.667,138.471,64.758,138.292,63.933,139.611 M80.877,139.068c0,0.304-0.109,0.552-0.244,0.552c-0.133,0-0.396-0.248-0.583-0.552
	c-0.187-0.303-0.078-0.551,0.243-0.551C80.613,138.518,80.877,138.768,80.877,139.068 M114.755,139.068
	c-0.188,0.304-0.077,0.552,0.244,0.552c0.319,0,0.582-0.248,0.582-0.552c0-0.303,0.249-0.551,0.552-0.551
	c0.961,0,0.596,1.039-0.59,1.674c-3.229,1.729-11.529,2.875-11.529,1.596c0-0.329,0.465-0.439,1.061-0.251
	c0.66,0.21,1.238,0.019,1.531-0.507c0.26-0.463,1.22-0.924,2.133-1.022c0.914-0.1,1.96-0.366,2.322-0.592
	c0.389-0.239,0.668-0.11,0.674,0.312c0.006,0.523,0.154,0.494,0.541-0.105c0.356-0.551,0.539-0.596,0.543-0.139
	c0.005,0.381,0.258,0.689,0.561,0.689s0.551-0.372,0.551-0.826c0-0.455,0.264-0.826,0.584-0.826
	C114.833,138.52,114.941,138.768,114.755,139.068 M59.944,139.852c0,0.428-0.31,0.893-0.689,1.03
	c-1.189,0.433,0.375,2.316,1.947,2.345c1.193,0.021,1.332-0.131,0.886-0.963c-0.292-0.546-0.786-0.99-1.099-0.99
	c-0.318,0-0.415-0.485-0.219-1.102c0.201-0.633,0.1-1.104-0.238-1.104C60.208,139.068,59.944,139.42,59.944,139.852 M83.08,139.62
	c0,0.303-0.248,0.552-0.551,0.552s-0.553-0.249-0.553-0.552c0-0.304,0.25-0.552,0.553-0.552S83.08,139.316,83.08,139.62
	 M105.391,140.172c-0.188,0.303-0.589,0.551-0.892,0.551c-0.304,0-0.397-0.248-0.21-0.551s0.588-0.552,0.891-0.552
	S105.578,139.869,105.391,140.172 M52.879,141.09c0.269,1.383,1.556,1.571,1.556,0.229c0-0.676-0.356-1.146-0.867-1.146
	C53.055,140.172,52.774,140.546,52.879,141.09 M54.986,142.1c0,0.506,0.266,0.83,0.592,0.721c0.325-0.106,0.592-0.432,0.592-0.721
	c0-0.287-0.267-0.611-0.592-0.722C55.252,141.271,54.986,141.596,54.986,142.1 M58.021,145.689c0.19,0.308,0.577,0.416,0.859,0.242
	c0.764-0.474,0.622-0.803-0.346-0.803C58.062,145.13,57.831,145.381,58.021,145.689 M90.288,149.998
	c-0.71,1.329-0.394,2.293,0.754,2.293c1.089,0,1.431-1.405,0.61-2.525C90.979,148.844,90.9,148.855,90.288,149.998 M98.229,153.395
	c-0.187,0.303-0.076,0.549,0.244,0.549s0.584-0.246,0.584-0.549c0-0.306-0.109-0.553-0.244-0.553
	C98.68,152.842,98.416,153.089,98.229,153.395"/>
</svg>
