<?xml version="1.0" encoding="utf-8"?>
<!-- Generator: Adobe Illustrator 16.0.0, SVG Export Plug-In . SVG Version: 6.00 Build 0)  -->
<!DOCTYPE svg PUBLIC "-//W3C//DTD SVG 1.1//EN" "http://www.w3.org/Graphics/SVG/1.1/DTD/svg11.dtd">
<svg version="1.1" id="Layer_1" xmlns="http://www.w3.org/2000/svg" xmlns:xlink="http://www.w3.org/1999/xlink" x="0px" y="0px"
	 width="160px" height="160px" viewBox="0 0 160 160" enable-background="new 0 0 160 160" xml:space="preserve">
<path fill="none" stroke="#ED1C24" stroke-width="0.25" stroke-miterlimit="10" d="M96.617,9.104
	c-3.12,1.173-3.856,1.209-4.468,0.219c-1.021-1.65-2.914-0.258-2.387,1.756c0.274,1.049-0.175,1.978-1.229,2.541
	c-1.436,0.77-1.661,0.585-1.661-1.361c0-2.224-0.063-2.246-5.236-1.791c-2.879,0.253-5.984,0.861-6.899,1.351
	c-0.915,0.49-2.962,0.919-4.548,0.951c-1.586,0.034-3.667,0.376-4.623,0.762c-0.957,0.384-2.456,0.325-3.333-0.131
	c-1.186-0.616-1.877-0.44-2.701,0.686c-0.649,0.889-1.684,1.294-2.501,0.979c-0.868-0.332-3.457,0.93-6.865,3.349
	c-3.01,2.136-6.06,4.107-6.777,4.384c-5.763,2.21-9.331,4.702-11.699,8.175c-4.616,6.766-8.304,13.117-8.304,14.301
	c0,0.627-0.65,1.678-1.446,2.334c-2.534,2.092-4.486,7.938-5.12,15.326c-0.625,7.298-0.882,7.71-4.508,7.243
	c-1.424-0.183-0.453,2.271,1.14,2.881c1.524,0.586,1.653,2.353,0.15,2.052c-0.798-0.159-1.101,1.746-1.139,7.175
	c-0.027,4.065-0.339,8.015-0.691,8.774c-0.392,0.844-0.122,1.813,0.693,2.49c0.734,0.609,1.12,1.455,0.858,1.879
	c-0.752,1.219-2.983,0.898-2.983-0.428c0-0.658-0.541-1.646-1.203-2.195c-1.736-1.439-2.159,0.275-1.437,5.827
	c0.585,4.497-0.193,7.089-1.094,3.646c-0.249-0.951-0.894-1.729-1.434-1.729c-0.711,0-0.726,0.478-0.051,1.739
	c0.599,1.119,0.621,1.738,0.061,1.738c-0.479,0-1.288-0.782-1.8-1.738c-1.323-2.471-2.145-2.153-2.359,0.91
	c-0.129,1.845,0.267,2.793,1.305,3.126c0.819,0.263,2.077,0.688,2.794,0.944c0.718,0.256,2.459,0.615,3.871,0.797
	c1.41,0.185,3.367,1.063,4.348,1.949c0.98,0.892,2.213,1.459,2.739,1.264c1.474-0.543,3.539,2.287,2.249,3.084
	c-0.79,0.488-0.776,0.982,0.056,2.104c0.971,1.31,1.343,1.334,3.479,0.218c1.316-0.687,2.392-0.94,2.392-0.563
	c0,0.378,0.881,1.091,1.957,1.585c1.843,0.848,1.77,0.938-1.248,1.523c-1.763,0.344-3.58,0.393-4.04,0.108
	c-0.459-0.284-1.085,0.134-1.391,0.931c-0.305,0.797-0.053,1.764,0.561,2.148c1.085,0.684,1.545,0.639,5.683-0.552
	c1.159-0.333,1.957-0.185,1.957,0.366c0,0.51-0.423,0.928-0.942,0.928c-1.524,0-0.411,2.001,1.25,2.244
	c2.199,0.322,4.041,2.082,4.041,3.856c0,0.847,0.587,1.765,1.305,2.04c1.563,0.6,1.591,0.396,0.33-2.371
	c-0.814-1.787-0.685-2.449,0.787-4.029c1.792-1.924,2.264-1.864,6.22,0.773c1.002,0.668,1.036,1.087,0.171,2.131
	c-0.887,1.067-0.762,1.396,0.708,1.862c2.288,0.728,2.318,2.188,0.046,2.188c-2.885,0-1.957,1.6,1.478,2.545
	c2.601,0.721,3.508,0.627,4.734-0.482c2.769-2.506,14.795-1.547,19.144,1.525c2.483,1.753,4.214,2.104,4.214,0.854
	c0-1.147,2.183-1.782,4.265-1.237c2.12,0.556,2.458,2.015,0.467,2.015c-0.745,0-1.114,0.392-0.818,0.869
	c0.866,1.401,7.05,1.027,8.319-0.504c0.671-0.81,1.979-1.215,3.172-0.986c1.662,0.316,1.938,0.093,1.518-1.235
	c-0.803-2.527,1.201-1.951,4.935,1.423c1.853,1.674,3.76,3.043,4.235,3.043c1.275,0,1.061-1.733-0.22-1.768
	c-0.598-0.016-1.868-0.617-2.823-1.339c-1.629-1.232-1.537-1.287,1.522-0.907c2.429,0.301,3.258,0.088,3.258-0.835
	c0-1.494,1.874-1.627,3.267-0.234c1.008,1.007,4.27-1.219,10.963-7.475c2.75-2.568,3.814-2.459,2.367,0.247
	c-0.822,1.539-0.693,1.728,1.054,1.542c2.788-0.297,4.095-1.262,3.567-2.637c-0.471-1.221,3.476-4.859,5.271-4.859
	c1.62,0,5.926-7.107,6.057-10.001c0.065-1.437,0.403-3.063,0.752-3.622c0.348-0.557,0.199-1.156-0.33-1.334
	c-0.617-0.206-0.328-1.402,0.811-3.336c3.894-6.622,5.305-10.177,5.801-14.6c0.286-2.547,0.834-5.481,1.22-6.523
	c0.385-1.041,0.541-2.342,0.348-2.889c-0.192-0.547,0.419-3.273,1.359-6.06c1.151-3.414,1.45-5.55,0.914-6.55
	c-0.437-0.816-0.941-3.124-1.121-5.126c-0.182-2.003-0.855-3.968-1.502-4.367c-0.645-0.397-0.906-0.991-0.58-1.316
	c0.691-0.692-1.162-4.521-4.679-9.66c-1.369-1.999-2.49-4.348-2.49-5.218c-0.008-2.924-4.316-10.258-6.334-10.774
	c-1.16-0.299-1.873-1.109-1.791-2.037c0.096-1.121-0.324-1.421-1.552-1.101c-1.127,0.295-2.13-0.239-3.03-1.616
	c-1.716-2.618-6.772-5.622-9.466-5.622c-1.14,0-2.315-0.392-2.61-0.87c-0.295-0.479-2.817-0.87-5.604-0.87
	c-4.51,0-5.231-0.251-6.563-2.283c-1.237-1.889-1.291-2.425-0.316-3.103c2.229-1.547,6.777-3.311,8.543-3.311
	c0.973,0,1.768-0.392,1.768-0.87C105.138,7.108,100.956,7.475,96.617,9.104 M45.708,16.769c-1.057,1.056-0.601,1.983,0.725,1.475
	c0.717-0.276,1.304-0.851,1.304-1.277C47.737,16.054,46.54,15.938,45.708,16.769 M130.356,26.392c2.141,2.702,3.48,3.524,3.48,2.136
	c0-0.388-1.273-1.646-2.827-2.794l-2.825-2.088L130.356,26.392 M127.313,27.494c0.297,0.479,0.711,0.87,0.922,0.87
	s0.384-0.392,0.384-0.87s-0.414-0.869-0.921-0.869C127.19,26.625,127.019,27.017,127.313,27.494 M137.589,30.433
	c0.254,0.659,0.099,1.56-0.344,2.003c-0.491,0.491,0.013,1.909,1.302,3.655c1.156,1.568,2.986,5.069,4.066,7.781
	c1.08,2.711,2.481,5.702,3.115,6.646c0.633,0.943,1.153,2.357,1.153,3.145s0.782,2.423,1.739,3.64
	c0.956,1.216,1.738,3.03,1.738,4.031c0,1.672,1.666,2.474,2.795,1.345c0.557-0.558-4.354-14.063-7-19.249
	c-1.004-1.968-2.051-4.891-2.323-6.494c-0.274-1.608-1.634-3.99-3.024-5.309C138.039,29.005,136.877,28.575,137.589,30.433
	 M132.974,30.835c-0.004,0.643,0.777,2.163,1.732,3.379c2.248,2.856,2.248,1.455,0-1.937
	C133.757,30.842,132.976,30.193,132.974,30.835 M16.493,36.824c-2.407,2.92-3.258,4.585-2.342,4.585
	c0.181,0,1.772-1.761,3.536-3.913c1.765-2.152,2.819-3.914,2.343-3.914C19.554,33.582,17.962,35.042,16.493,36.824 M137.314,42.291
	c0,0.975-0.158,0.631,5.592,12.061c2.76,5.48,3.945,8.8,3.617,10.113c-0.271,1.076,0.084,3.862,0.789,6.192
	c1.469,4.87,0.959,6.789-4.959,18.695c-1.814,3.646-3.299,6.903-3.299,7.234c0,0.332-1.173,2.307-2.603,4.387
	c-1.762,2.557-2.256,3.898-1.529,4.141c0.986,0.328,2.724-1.555,7.043-7.639c2.338-3.291,2.722-2.021,0.628,2.084
	c-0.99,1.941-1.8,4.305-1.8,5.25c0,0.949-0.401,1.973-0.894,2.274c-0.49,0.304-0.785,1.035-0.652,1.625s-1.51,3.165-3.648,5.722
	c-3.84,4.59-2.708,4.879,1.928,0.49c2.854-2.699,9.354-11.188,9.354-12.212c0-0.399-1.06,0.224-2.353,1.384l-2.354,2.108l1.48-2.175
	c0.813-1.195,2.271-3.643,3.238-5.437c0.969-1.793,2.101-3.261,2.516-3.261c0.932,0,6.769-12.061,8.417-17.394
	c1.397-4.527,1.582-11.153,0.358-13.046c-0.625-0.967-0.847-0.439-0.855,2.038c-0.01,2.573-0.403,3.444-1.705,3.785
	c-1.406,0.368-1.521,0.713-0.686,2.054c0.555,0.886,0.728,1.891,0.387,2.23c-1.213,1.213-1.924-0.753-1.924-5.322
	c0-3.61-0.24-4.438-1.088-3.735c-0.598,0.496-1.086,1.81-1.086,2.919s-0.402,2.266-0.896,2.569
	c-0.589,0.364-0.758-0.962-0.495-3.861c0.223-2.429,0.116-4.416-0.234-4.416c-0.35,0-1.125-1.467-1.726-3.261
	c-1.997-5.98-8.376-18.386-9.478-18.435C137.805,41.431,137.314,41.806,137.314,42.291 M1.389,90.764
	c-0.519,2.699-0.274,3.258,1.068,2.428c1.115-0.688,1.251-4.818,0.16-4.818C2.193,88.372,1.641,89.447,1.389,90.764 M22.354,126.363
	c0.627,0.251,1.378,0.219,1.667-0.07c0.289-0.288-0.224-0.493-1.141-0.456C21.867,125.879,21.661,126.085,22.354,126.363
	 M96.875,143.163c0.295,0.479,0.905,0.87,1.354,0.87c0.451,0,0.818-0.392,0.818-0.87s-0.609-0.869-1.355-0.869
	S96.579,142.685,96.875,143.163 M93.831,144.901c0,0.479,0.414,0.871,0.92,0.871c0.507,0,0.68-0.393,0.384-0.871
	c-0.295-0.478-0.71-0.868-0.92-0.868C94.003,144.033,93.831,144.425,93.831,144.901 M54.333,147.396
	c-0.375,0.605-0.446,1.336-0.159,1.623c0.778,0.778,1.627-0.365,1.207-1.627C55.086,146.508,54.88,146.508,54.333,147.396
	 M59.914,147.046c0,0.921,3.592,2.238,4.526,1.66c0.682-0.42,0.462-0.84-0.67-1.283C61.805,146.653,59.914,146.469,59.914,147.046
	 M56.008,151.873c0.301,0.487,0.911,0.659,1.356,0.385c1.207-0.746,0.982-1.269-0.546-1.269
	C56.073,150.99,55.709,151.388,56.008,151.873"/>
</svg>
