<?xml version="1.0" encoding="utf-8"?>
<!-- Generator: Adobe Illustrator 16.0.0, SVG Export Plug-In . SVG Version: 6.00 Build 0)  -->
<!DOCTYPE svg PUBLIC "-//W3C//DTD SVG 1.1//EN" "http://www.w3.org/Graphics/SVG/1.1/DTD/svg11.dtd">
<svg version="1.1" id="Layer_1" xmlns="http://www.w3.org/2000/svg" xmlns:xlink="http://www.w3.org/1999/xlink" x="0px" y="0px"
	 width="160px" height="160px" viewBox="0 0 160 160" enable-background="new 0 0 160 160" xml:space="preserve">
<path fill="none" stroke="#ED1C24" stroke-width="0.25" stroke-miterlimit="10" d="M11.373,41.755h3.175
	c0.672,0,1.218-0.545,1.218-1.218c0-0.672-0.546-1.218-1.218-1.218h-3.175c-0.672,0-1.218,0.545-1.218,1.218
	C10.155,41.209,10.701,41.755,11.373,41.755z M83.322,118.896c-1.672,0-3.027,1.354-3.027,3.025v1.54h6.055v-1.54
	C86.35,120.251,84.994,118.896,83.322,118.896z M28.17,37.621 M39.098,122.439c-0.979,0-1.772,0.793-1.772,1.771v1.064
	c0,0.979,0.793,1.772,1.772,1.772s1.771-0.795,1.771-1.772v-1.064C40.869,123.232,40.076,122.439,39.098,122.439z M62.619,30.629
	c0-0.706-0.571-1.278-1.276-1.278c-0.706,0-1.277,0.572-1.277,1.278v0.99c0,0.705,0.572,1.276,1.277,1.276
	c0.705,0,1.276-0.571,1.276-1.276V30.629z M57.26,31.603c-1.55,0-2.806,1.257-2.806,2.806v3.322c0,1.549,1.256,2.805,2.806,2.805
	c1.549,0,2.805-1.256,2.805-2.805v-3.322C60.065,32.86,58.81,31.603,57.26,31.603z M79.41,33.782h1.181
	c1.224,0,2.216-0.992,2.216-2.216c0-1.223-0.992-2.215-2.216-2.215H79.41c-1.224,0-2.216,0.992-2.216,2.215
	C77.194,32.79,78.187,33.782,79.41,33.782z M123.441,117.357h-4.78c-1.697,0-3.073,1.377-3.073,3.074s1.376,3.072,3.073,3.072h4.78
	c1.697,0,3.074-1.375,3.074-3.072S125.139,117.357,123.441,117.357z M12.518,72.764c0-0.815-0.661-1.477-1.477-1.477H7.792
	c-0.816,0-1.476,0.661-1.476,1.477s0.66,1.478,1.476,1.478h3.249C11.857,74.242,12.518,73.58,12.518,72.764z M17.479,117.357h-3.424
	c-0.849,0-1.537,0.688-1.537,1.537c0,0.851,0.688,1.537,1.537,1.537h3.424c0.848,0,1.536-0.688,1.536-1.537
	C19.015,118.047,18.327,117.357,17.479,117.357z M15.767,86.202c0-1.224-0.992-2.216-2.215-2.216h-2.067
	c-1.223,0-2.215,0.992-2.215,2.216c0,1.223,0.992,2.214,2.215,2.214h2.067C14.775,88.416,15.767,87.425,15.767,86.202z M9.8,48.547
	 M77.969,35.332h4.652c2.061,0,3.729-1.669,3.729-3.729c0-2.059-1.668-3.729-3.729-3.729h-4.652c-2.059,0-3.728,1.669-3.728,3.729
	C74.242,33.663,75.911,35.332,77.969,35.332z M79.41,29.351h1.181c1.224,0,2.216,0.992,2.216,2.215c0,1.224-0.992,2.216-2.216,2.216
	H79.41c-1.224,0-2.216-0.992-2.216-2.216C77.194,30.343,78.187,29.351,79.41,29.351z M153.242,103.479h-3.248v-3.838h0.441
	c2.121,0,3.84-1.721,3.84-3.84c0-2.121-1.719-3.839-3.84-3.839h-3.74v-2.659h5.809c1.793,0,3.248-1.455,3.248-3.248
	c0-1.795-1.455-3.248-3.248-3.248h-0.188c0.055-0.287,0.088-0.584,0.088-0.887c0-0.986-0.301-1.9-0.818-2.658h0.623
	c1.143,0,2.066-0.925,2.066-2.067c0-1.142-0.926-2.067-2.066-2.067h-5.514v-4.725h8.763c1.957,0,3.543-1.586,3.543-3.544
	s-1.586-3.544-3.543-3.544h-8.763V51.796c0-0.806-0.079-1.592-0.204-2.362h2.174c2.065,0,3.739-1.674,3.739-3.741
	s-1.674-3.74-3.739-3.74h-3.938c-0.559,0-1.082,0.13-1.557,0.348c-2.494-2.867-6.086-4.68-10.096-4.68h-1.813
	c0.131-0.223,0.241-0.458,0.328-0.706c0.396,0.335,0.903,0.546,1.465,0.546h12.734c1.264,0,2.284-1.022,2.284-2.282
	c0-1.261-1.021-2.284-2.284-2.284h-12.734c-0.693,0-1.307,0.316-1.725,0.803c-0.68-1.242-1.98-2.095-3.494-2.095h-1.65
	c0.203-0.362,0.33-0.773,0.33-1.218c0-1.387-1.123-2.511-2.511-2.511h-2.362c-1.388,0-2.511,1.124-2.511,2.511
	c0,0.444,0.124,0.855,0.327,1.218h-3.127c-2.129,0-3.852,1.669-3.971,3.767c-0.125-0.022-0.25-0.038-0.381-0.038l-5.254,0.892
	c0,0.489-0.396,2.874-0.885,2.874c-0.49,0-0.887-0.397-0.887-0.886v-2.879h-6.346c-0.396-1.403-1.674-2.437-3.205-2.437h-5.709
	c-1.848,0-3.348,1.499-3.348,3.348c0,0.493,0.112,0.957,0.305,1.378H73.06v-4.43c0-1.549-1.256-2.805-2.806-2.805
	c-1.55,0-2.806,1.256-2.806,2.805v4.43h-4.725v-3.691c0-0.354,3.249,1.403,3.249-3.544c0-1.387-1.124-2.511-2.511-2.511
	c0,0-6.27,0-6.792,0c-3.343,0-6.054,2.71-6.054,6.055v3.691H40.574v-2.658c0-1.141-0.926-2.067-2.067-2.067
	c-1.142,0-2.067,0.926-2.067,2.067l-11.242,2.658c0.005-0.066,0.02-0.129,0.02-0.196v-2.364c0-1.196-0.97-2.166-2.165-2.166
	c-1.196,0-2.166,0.97-2.166,2.166v2.364c0,0.067,0.014,0.13,0.02,0.196H20.33c-0.964,0-1.904,0.107-2.812,0.306
	c-0.527-1.137-1.671-1.93-3.007-1.93c0,0,0.517-3.101-2.953-3.101h-0.739c-1.346,0-2.436,1.091-2.436,2.437
	c0,1.259,0.959,2.284,2.187,2.41c-0.256,0.472-0.415,1.003-0.415,1.577h-0.16c-1.815,0-3.286,1.471-3.286,3.285
	c0,1.155,0.597,2.166,1.498,2.752c-0.492,1.001-0.871,2.07-1.125,3.192H3.215C1.992,48.547,1,49.54,1,50.763
	c0,1.223,0.992,2.215,2.215,2.215H6.71v2.362h4.626c0.652,0,1.181,0.529,1.181,1.182s-0.529,1.182-1.181,1.182L6.71,59.475H2.92
	c-1.061,0-1.92,0.86-1.92,1.92s0.859,1.919,1.92,1.919h3.79v5.474c-0.364-0.093-0.739-0.158-1.132-0.158
	C3.05,68.629,1,70.68,1,73.208v7.087c0,2.528,2.05,4.578,4.578,4.578c0.394,0,0.768-0.064,1.132-0.159v2.418
	c-0.683,0.481-1.132,1.272-1.132,2.171c0,0.899,0.449,1.69,1.132,2.172v8.166H4.396c-0.407,0-0.738,0.33-0.738,0.737
	c0,0.406,0.331,0.737,0.738,0.737H6.71v8.172c0,2.79,0.786,5.385,2.123,7.578c-0.179,0.227-0.302,0.5-0.302,0.811v4.457
	c0,0.734,0.595,1.329,1.329,1.329c0.733,0,1.329-0.595,1.329-1.329v-2.359c0.787,0.746,1.649,1.401,2.586,1.938l-2.515,2.777
	c-1.04,1.147-0.952,2.924,0.196,3.964s2.923,0.951,3.964-0.196l4.367-4.823c0.182,0.01,0.36,0.028,0.544,0.028H36.44v3.06
	c0,1.468,1.189,2.658,2.658,2.658c1.468,0,2.657-1.19,2.657-2.658v-0.336c0.628,0.565,1.451,0.92,2.363,0.92
	c1.957,0,3.543-1.586,3.543-3.543v-0.101h4.134v4.24c0,0.815,0.662,1.478,1.477,1.478c0.816,0,1.477-0.662,1.477-1.478v2.062
	c0,1.305,1.058,2.361,2.363,2.361c1.305,0,2.362-1.059,2.362-2.361v-6.302h3.249v4.093c0,0.897,0.727,1.625,1.624,1.625
	s1.625-0.728,1.625-1.625v-4.093h14.323v-1.54c0-1.671,1.355-3.025,3.027-3.025s3.027,1.354,3.027,3.025v1.54h0.215
	c0.396-0.905,1.297-1.54,2.349-1.54h2.257c1.051,0,12.333,1.54,12.333,1.54c-0.007,0.08-0.022,0.157-0.022,0.24v3.202h-1.228
	c-1.278,0-2.317,1.037-2.317,2.318c0,1.279,1.039,2.318,2.317,2.318h3.599c0.142,0.021,0.283,0.044,0.435,0.044
	c0.147,0,0.29-0.022,0.435-0.044h0.053c1.279,0,2.318-1.039,2.318-2.318c0-0.076-0.017-0.147-0.023-0.222
	c0.008-0.076,0.023-0.146,0.023-0.224v-5.076c0-0.083-0.019-0.16-0.025-0.24h5.051c-0.001,0.016-0.004,0.028-0.004,0.043
	c0,1.987,1.609,3.6,3.6,3.6h5.203c1.986,0,3.602-1.611,3.602-3.6c0-0.015-0.004-0.027-0.004-0.043h4.26v3.71
	c0,1.108,0.897,2.007,2.006,2.007c1.109,0,2.008-0.896,2.008-2.007v-3.832c1.656-0.218,3.221-0.737,4.638-1.515
	c0,0-3.927,8.527-3.048,8.527h3.021c0.879,0,1.582-1.617,1.582-1.634c0.131,0.027,2.371-4.597,2.371-4.597
	c0.678,0.26,1.405,0.418,2.178,0.418h0.777c3.369,0,6.102-2.73,6.102-6.102c0-1.278-0.396-2.463-1.068-3.443h1.906
	c3.179,0,5.758-2.578,5.758-5.76C159.004,106.055,156.421,103.479,153.242,103.479z M11.373,39.319h3.175
	c0.672,0,1.218,0.545,1.218,1.218s-0.546,1.218-1.218,1.218h-3.175c-0.672,0-1.218-0.545-1.218-1.218S10.701,39.319,11.373,39.319z
	 M7.083,50.172c0.118-0.889,0.727-1.625,1.625-1.625H9.8v-0.265c0-1.648,1.335-2.983,2.983-2.983c1.648,0,2.983,1.335,2.983,2.983
	v2.598C15.767,52.528,6.71,52.978,7.083,50.172z M7.792,74.242c-0.816,0-1.476-0.662-1.476-1.478c0-0.815,0.66-1.477,1.476-1.477
	h3.249c0.816,0,1.477,0.661,1.477,1.477s-0.661,1.478-1.477,1.478H7.792z M9.269,86.202c0-1.224,0.992-2.216,2.215-2.216h2.067
	c1.224,0,2.215,0.992,2.215,2.216c0,1.223-0.992,2.214-2.215,2.214h-2.067C10.261,88.416,9.269,87.425,9.269,86.202z
	 M17.479,120.434h-3.424c-0.849,0-1.537-0.688-1.537-1.537c0-0.85,0.688-1.537,1.537-1.537h3.424c0.848,0,1.536,0.688,1.536,1.537
	C19.015,119.745,18.327,120.434,17.479,120.434z M40.869,125.277c0,0.978-0.793,1.771-1.771,1.771c-0.979,0-1.772-0.795-1.772-1.771
	v-1.065c0-0.979,0.793-1.772,1.772-1.772s1.771,0.795,1.771,1.772V125.277z M60.065,37.731c0,1.549-1.256,2.805-2.805,2.805
	c-1.55,0-2.806-1.256-2.806-2.805v-3.322c0-1.549,1.256-2.806,2.806-2.806c1.549,0,2.805,1.257,2.805,2.806V37.731z M61.343,32.895
	c-0.706,0-1.277-0.571-1.277-1.276v-0.99c0-0.706,0.572-1.278,1.277-1.278c0.705,0,1.276,0.572,1.276,1.278v0.99
	C62.619,32.324,62.048,32.895,61.343,32.895z M123.441,123.505h-4.78c-1.697,0-3.073-1.375-3.073-3.071
	c0-1.697,1.376-3.074,3.073-3.074h4.78c1.697,0,3.074,1.377,3.074,3.074C126.516,122.13,125.139,123.505,123.441,123.505z"/>
</svg>
