<?xml version="1.0" encoding="utf-8"?>
<!-- Generator: Adobe Illustrator 16.0.0, SVG Export Plug-In . SVG Version: 6.00 Build 0)  -->
<!DOCTYPE svg PUBLIC "-//W3C//DTD SVG 1.1//EN" "http://www.w3.org/Graphics/SVG/1.1/DTD/svg11.dtd">
<svg version="1.1" id="Layer_1" xmlns="http://www.w3.org/2000/svg" xmlns:xlink="http://www.w3.org/1999/xlink" x="0px" y="0px"
	 width="160px" height="160px" viewBox="0 0 160 160" enable-background="new 0 0 160 160" xml:space="preserve">
<path fill="none" stroke="#ED1C24" stroke-width="0.25" stroke-miterlimit="10" d="M159,64.876c0-11.604-8.467-21.291-19.747-23.597
	c0.269-1.412,0.415-2.863,0.415-4.348c0-13.321-11.161-24.12-24.922-24.12c-4.455,0-8.633,1.136-12.249,3.117
	C98.764,7.167,89.855,1,79.454,1c-9.59,0-17.909,5.247-22.076,12.934c-3.167-1.411-6.69-2.205-10.406-2.205
	c-13.762,0-24.919,10.799-24.919,24.119c0,0.963,0.065,1.911,0.177,2.843C10.216,40.417,1,50.439,1,62.546
	c0,6.68,2.805,12.724,7.338,17.092C3.805,84.006,1,90.05,1,96.73c0,11.773,8.722,21.574,20.255,23.688
	c-0.149,1.065-0.232,2.151-0.232,3.257c0,13.32,11.155,24.119,24.919,24.119c3.636,0,7.084-0.76,10.201-2.115
	C60.237,153.577,68.672,159,78.424,159c9.387,0,17.557-5.021,21.803-12.441c3.553,1.887,7.633,2.961,11.969,2.961
	c13.764,0,24.918-10.801,24.918-24.119c0-1.021-0.07-2.022-0.198-3.012c11.925-1.797,21.054-11.779,21.054-23.828
	c0-6.302-2.498-12.037-6.584-16.334C156.076,77.84,159,71.69,159,64.876z"/>
</svg>
