<?xml version="1.0" encoding="utf-8"?>
<!-- Generator: Adobe Illustrator 16.0.0, SVG Export Plug-In . SVG Version: 6.00 Build 0)  -->
<!DOCTYPE svg PUBLIC "-//W3C//DTD SVG 1.1//EN" "http://www.w3.org/Graphics/SVG/1.1/DTD/svg11.dtd">
<svg version="1.1" id="Layer_1" xmlns="http://www.w3.org/2000/svg" xmlns:xlink="http://www.w3.org/1999/xlink" x="0px" y="0px"
	 width="160px" height="160px" viewBox="0 0 160 160" enable-background="new 0 0 160 160" xml:space="preserve">
<path fill="none" stroke="#F91408" stroke-width="0.25" stroke-miterlimit="10" d="M141.49,151.266c-2.92,0-5.285-2.381-5.285-5.317
	s2.365-5.318,5.285-5.318c0.175,0,0.34,0.035,0.51,0.052v-6.115c-0.17,0.017-0.335,0.052-0.51,0.052
	c-2.92,0-5.285-2.382-5.285-5.318s2.365-5.317,5.285-5.317c0.175,0,0.34,0.035,0.51,0.052v-6.115
	c-0.17,0.017-0.335,0.052-0.51,0.052c-2.92,0-5.285-2.382-5.285-5.318c0-2.938,2.365-5.318,5.285-5.318
	c0.175,0,0.34,0.035,0.51,0.053v-6.115c-0.17,0.017-0.335,0.052-0.51,0.052c-2.92,0-5.285-2.382-5.285-5.318
	c0-2.938,2.365-5.319,5.285-5.319c0.175,0,0.34,0.035,0.51,0.053v-6.115c-0.17,0.018-0.335,0.052-0.51,0.052
	c-2.92,0-5.285-2.381-5.285-5.319c0-2.937,2.365-5.317,5.285-5.317c0.175,0,0.34,0.035,0.51,0.052v-6.116
	c-0.17,0.017-0.335,0.052-0.51,0.052c-2.92,0-5.285-2.382-5.285-5.318c0-2.938,2.365-5.319,5.285-5.319
	c0.175,0,0.34,0.035,0.51,0.052v-6.115c-0.17,0.017-0.335,0.052-0.51,0.052c-2.92,0-5.285-2.381-5.286-5.319
	c0-2.937,2.366-5.317,5.286-5.317c0.175,0,0.34,0.035,0.51,0.052v-5.817c-0.17,0.017-0.335,0.052-0.51,0.052
	c-2.92,0-5.285-2.382-5.285-5.318c0-2.938,2.365-5.319,5.285-5.319c0.175,0,0.34,0.035,0.51,0.052V18.33
	c-0.17,0.017-0.335,0.052-0.51,0.052c-2.92,0-5.285-2.381-5.286-5.319c0-2.937,2.366-5.317,5.286-5.317
	c0.175,0,0.34,0.035,0.51,0.052V1h-7.247c0.013,0.153,0.045,0.3,0.045,0.456c0,2.938-2.364,5.319-5.284,5.319
	s-5.285-2.382-5.285-5.319c0-0.156,0.033-0.303,0.045-0.456h-6.064c0.014,0.153,0.046,0.3,0.046,0.456
	c0,2.938-2.366,5.319-5.286,5.319c-2.918,0-5.285-2.382-5.285-5.319c0-0.156,0.033-0.303,0.047-0.456h-6.066
	c0.013,0.153,0.045,0.3,0.045,0.456c0,2.938-2.365,5.319-5.284,5.319c-2.92,0-5.286-2.382-5.286-5.319
	c0-0.156,0.033-0.303,0.047-0.456H85.12c0.013,0.153,0.046,0.3,0.046,0.456c0,2.938-2.366,5.319-5.286,5.319
	c-2.918,0-5.285-2.382-5.285-5.319c0-0.156,0.032-0.303,0.045-0.456h-6.066c0.013,0.153,0.046,0.3,0.046,0.456
	c0,2.938-2.367,5.319-5.286,5.319s-5.285-2.382-5.285-5.319c0-0.156,0.032-0.303,0.045-0.456h-6.066
	c0.013,0.153,0.045,0.3,0.045,0.456c0,2.938-2.366,5.319-5.285,5.319s-5.285-2.382-5.285-5.319c0-0.156,0.032-0.303,0.045-0.456
	h-6.066c0.013,0.153,0.045,0.3,0.045,0.456c0,2.938-2.366,5.319-5.285,5.319c-2.919,0-5.286-2.382-5.286-5.319
	c0-0.156,0.033-0.303,0.046-0.456H18v6.76c0.09-0.004,0.174-0.026,0.265-0.026c2.919,0,5.285,2.381,5.285,5.317
	c0,2.938-2.366,5.319-5.285,5.319c-0.091,0-0.175-0.022-0.265-0.027v6.065c0.09-0.004,0.174-0.026,0.265-0.026
	c2.919,0,5.285,2.381,5.285,5.319c0,2.937-2.366,5.318-5.285,5.318c-0.091,0-0.175-0.022-0.265-0.027v5.768
	c0.09-0.004,0.174-0.026,0.265-0.026c2.919,0,5.285,2.381,5.285,5.317c0,2.938-2.366,5.319-5.285,5.319
	c-0.091,0-0.175-0.022-0.265-0.027v6.065c0.09-0.004,0.174-0.026,0.265-0.026c2.919,0,5.285,2.381,5.285,5.319
	c0,2.937-2.366,5.318-5.285,5.318c-0.091,0-0.175-0.022-0.265-0.027v6.066c0.09-0.004,0.174-0.026,0.265-0.026
	c2.919,0,5.285,2.381,5.285,5.317c0,2.938-2.366,5.319-5.285,5.319c-0.091,0-0.175-0.021-0.265-0.025v6.063
	c0.09-0.004,0.174-0.026,0.265-0.026c2.919,0,5.285,2.381,5.285,5.319c0,2.937-2.366,5.317-5.285,5.317
	c-0.091,0-0.175-0.021-0.265-0.026v6.065c0.09-0.004,0.174-0.026,0.265-0.026c2.919,0,5.285,2.382,5.285,5.319
	c0,2.937-2.366,5.317-5.285,5.317c-0.091,0-0.175-0.022-0.265-0.026v6.064c0.09-0.004,0.174-0.025,0.265-0.025
	c2.919,0,5.285,2.381,5.285,5.317s-2.366,5.318-5.285,5.318c-0.091,0-0.175-0.022-0.265-0.026v6.066
	c0.09-0.006,0.174-0.027,0.265-0.027c2.919,0,5.285,2.381,5.285,5.318c0,2.937-2.366,5.318-5.285,5.318
	c-0.091,0-0.175-0.022-0.265-0.027V159h6.956c0-2.938,2.367-5.318,5.286-5.318s5.285,2.381,5.285,5.318h5.975
	c0-2.938,2.366-5.318,5.285-5.318s5.285,2.381,5.285,5.318h5.975c0-2.938,2.366-5.318,5.285-5.318s5.286,2.381,5.286,5.318h5.975
	c0-2.938,2.366-5.318,5.285-5.318c2.92,0,5.286,2.381,5.286,5.318h5.975c0-2.938,2.365-5.318,5.285-5.318
	c2.919,0,5.284,2.381,5.284,5.318h5.976c0-2.938,2.367-5.318,5.285-5.318c2.92,0,5.286,2.381,5.286,5.318h5.974
	c0-2.938,2.367-5.318,5.287-5.318c2.918,0,5.283,2.381,5.283,5.318H142v-7.786C141.83,151.23,141.665,151.266,141.49,151.266z"/>
</svg>
